<?xml version="1.0" encoding="utf-8"?>
<!-- Generator: Adobe Illustrator 22.1.0, SVG Export Plug-In . SVG Version: 6.00 Build 0)  -->
<svg version="1.1" id="Laag_1" xmlns="http://www.w3.org/2000/svg" xmlns:xlink="http://www.w3.org/1999/xlink" x="0px" y="0px"
	 viewBox="0 0 106.7 119.1" style="enable-background:new 0 0 106.7 119.1;" xml:space="preserve">
<style type="text/css">
	.st0{fill:#FFFFFF;}
	.st1{fill:#1C9CD9;}
	.st2{fill:#000100;}
	.st3{fill:#1D1D1B;}
</style>
<path class="st0" d="M96.3,112.7H11.4c-0.4,0-0.7-0.3-0.7-0.7V31c0-0.4,0.3-0.7,0.7-0.7h84.9c0.4,0,0.7,0.3,0.7,0.7v81
	C97,112.4,96.7,112.7,96.3,112.7z"/>
<g>
	<path class="st1" d="M95.1,32.3c0.8,0,0.9,0.5,0.9,0.9v78.5c0,0.8-0.5,0.9-0.9,0.9H11.6c-0.8,0-0.9-0.5-0.9-0.9V33.2
		c0-0.8,0.5-0.9,0.9-0.9v-2c-1.2,0-2.9,0.8-2.9,2.9v78.5c0,1.2,0.8,2.9,2.9,2.9h83.5c1.2,0,2.9-0.8,2.9-2.9V33.2
		c0.1-1.1-0.7-2.9-2.9-2.9V32.3z"/>
</g>
<rect x="11.6" y="30.3" class="st1" width="83.5" height="2"/>
<g>
	<path class="st0" d="M94,49c-0.2-1.1-0.4-2.1-0.7-3.2c-0.2-0.8-0.7-1.3-1.5-1.3c-0.7,0-0.9-0.2-0.8-0.7l0,0
		c0.8-2.4,0.8-4.9,1.5-7.3c0.2-0.7,0.1-1.5,0-2.2c-0.4-1.6-0.9-3.2-1.6-4.7c-0.3-0.6-0.6-1.2-1-1.7c-0.1-0.4-0.3-0.8-0.7-0.9
		c-0.2-0.2-0.3-0.4-0.5-0.6c-0.4-0.5-1.2-0.7-1.9-0.9h-0.1c-0.6-0.5-1-1.1-1.6-1.8c-0.7-1.7-1.9-3.2-4.4-3.2c-2.4,0-4.7-0.5-7-1.1
		h-2.6c-0.2,0.1-0.5,0.3-0.7,0.3c-2.7,0.3-5.1,1.3-7.2,2.9c-2,1.5-4,2.9-6,4.4c-1.3,1-1.9,2.4-2.2,3.9c-0.9,4.3-0.3,8.5,0.6,12.7
		c0.1,0.7,0.1,1-0.7,1c-0.9,0-1.4,0.5-1.5,1.3C53.2,47,53,48,52.7,49.1c-0.4,2,0.5,5,1.6,6.8c0.4,0.6,0.8,1.3,1.3,1.9
		c0.5,0.9,1,1.7,2.4,1.1c0.1,0,0.5,0.3,0.5,0.5c0.2,3.1,1.9,5.6,3.8,7.9c1.8,2.1,3.9,4,6.4,5.4c1.1,0.6,2.4,1,3.7,1.1
		c1.8,0.2,3.7,0.2,5.3-0.5c2.2-0.9,3.5-2.8,5.2-4.3c0.7-0.6,1.4-1.3,1.9-2c0.9-1.1,1.5-2.3,2.1-3.6c0.2-0.5,0.4-0.9,0.6-1.4l0,0l0,0
		c0.3-0.8,0.5-1.7,0.6-2.7c0-0.2,0.5-0.5,0.5-0.5c1.3,0.6,1.9-0.3,2.4-1.1c0.5-0.6,1-1.3,1.3-1.9C93.6,54,94.5,51,94,49z"/>
	<path class="st2" d="M73.1,55.1c0,0-1.1-0.5-1.6-0.3S72.1,55.2,73.1,55.1z"/>
	<path class="st2" d="M74.4,55.1c1,0.1,2.1-0.1,1.6-0.3S74.4,55.1,74.4,55.1z"/>
	<path class="st2" d="M76.1,55.5c0.3,0,0.6-0.1,0.7-0.4c0.2-0.3,0.2-0.5,0.1-0.7c-0.1-0.3-0.1-0.2-0.2-0.4c-0.2-0.2-0.4-0.6-0.6-0.8
		c-0.1,0.3,0.1,0.8,0.2,1s0,0,0.1,0.2c0,0.2,0.1,0.4,0,0.5C76.4,55,76.3,55.2,76.1,55.5z"/>
	<path class="st2" d="M70.9,53.4c-0.2,0.2-0.3,0.4-0.4,0.7s-0.1,0.6,0.1,0.9c0.2,0.3,0.5,0.4,0.7,0.4C71.2,55.2,71,55,71,54.8
		s0-0.3,0-0.5c0.1-0.2,0.1-0.4,0.2-0.7c0.1-0.2,0.6-1.3,0.5-1.5C71.7,52.3,71.1,53.2,70.9,53.4z"/>
	<path class="st2" d="M72,56.6v0.3c0,0.1,0,0.2,0.1,0.3c0.1-0.1,0.1-0.2,0.1-0.3l0.1-0.3c0-0.1,0-0.2,0-0.3s0-0.2-0.1-0.3
		c-0.1,0.1-0.2,0.2-0.2,0.3C72.1,56.4,72.1,56.5,72,56.6z"/>
	<path class="st2" d="M74.8,56.1c-0.1,0.2-0.1,0.3-0.1,0.5s0,0.3,0,0.5l0.1,0.4c0,0.1,0.1,0.3,0.2,0.4c0.1-0.2,0.1-0.3,0.1-0.5v-0.5
		c0-0.2,0-0.3-0.1-0.4C75,56.4,74.9,56.2,74.8,56.1z"/>
	<path class="st2" d="M76,44.9c-0.5,1.1-0.6,2.4-0.4,3.7"/>
	<path class="st2" d="M84,49.1c0.3-0.2,1.9-0.9,2.3-1.2c-0.4,0-0.7,0.2-1,0.3c-0.6-0.5-0.8-1.2-1.5-1.4c-0.7-0.3-1-0.4-1.9-0.6
		c-0.8-0.1-1.6,0.3-2.4,0.5c-0.9,0.3-2.5,1.7-2.2,1.7c0,0,1.8-1.6,4.1-1.5c1.8,0.1,3.1,0.7,3.8,1.3C84.7,48.5,84.3,48.8,84,49.1z"/>
	<path class="st2" d="M70.8,39.9c0,0.4,0,0.7-0.1,1.1v1.1c0,0.4,0,0.7,0.1,1.1c0.1-0.4,0.1-0.7,0.2-1.1l0.1-1.1c0-0.4,0-0.7,0-1.1
		c0-0.4,0-0.7-0.1-1.1C70.8,39.1,70.8,39.5,70.8,39.9z"/>
	<path class="st2" d="M75.9,40.6c-0.1,0.2-0.1,0.4-0.1,0.6c0,0.2,0,0.4,0,0.6v0.6c0,0.2,0,0.4,0.1,0.6c0.1-0.2,0.1-0.4,0.1-0.6v-0.6
		c0-0.2,0-0.4,0-0.6C76.1,41,76,40.8,75.9,40.6z"/>
	<path class="st2" d="M85.3,49.2c0,0,0.9-1.2,2.3-1.5"/>
	<path class="st2" d="M77.3,53.3"/>
	<path class="st2" d="M87.5,46.7c0,0-1.2,0.9-2.6,0.9"/>
	<path class="st2" d="M87.8,45.1c0,0-0.7,1.3-2,1.9"/>
	<path class="st2" d="M80.2,57.7c0,0-2.2-1.7-2.5-3.8"/>
	<path class="st2" d="M67.4,57.7c0,0,2.2-1.7,2.5-3.8"/>
	<path class="st2" d="M70.8,52.8c0,0,1.2-1.5,1.1-3.2"/>
	<path class="st2" d="M70,40.1c0,0.5,0.1,2.2,0.1,2.2"/>
	<path class="st2" d="M76.8,41.6c-0.1,0.3-0.2,1.2-0.2,1.2"/>
	<path class="st2" d="M64.7,37.2c2.8-0.7,7.7-1.8,12-1.2c4.3,0.5-2.2,0.1-2.2,0.1S68.9,36.3,64.7,37.2z"/>
	<path class="st2" d="M67.1,35.4c2.8-0.7,7.7-1.8,12-1.2c4.3,0.5-3,0.2-3,0.2S71.3,34.5,67.1,35.4z"/>
	<path class="st2" d="M81.9,46.7L80,46.6c-0.6,0.4-0.6,1-0.2,1.5c0.4,0.6,1.2,0.7,1.7,0.3C82.1,48,82.3,47.3,81.9,46.7z M81.6,47.8
		c-0.2,0-0.4-0.2-0.4-0.4s0.2-0.4,0.4-0.4c0.2,0,0.4,0.2,0.4,0.4S81.8,47.8,81.6,47.8z"/>
	<path class="st2" d="M79.3,46c0.5-0.2,1.1-0.3,1.7-0.4c0.6-0.1,1.2,0,1.8,0.1c0.1,0,0.3,0.1,0.4,0.2l0.2,0.1l0.2,0.1
		c0.1,0,0.1,0.1,0.2,0.1l0.2,0.1c0.1,0,0.1,0.1,0.2,0.1l0.2,0.2c0.4,0.4,0.8,0.9,1,1.4L85,48.2c-0.3-0.5-0.7-0.9-1.1-1.2
		c-0.4-0.4-0.9-0.6-1.4-0.8c-0.4-0.2-1-0.2-1.5-0.3C80.4,45.9,79.8,46,79.3,46z"/>
	<path class="st2" d="M62,48.2c0.7-0.6,2.2-1.2,4.1-1.3c2.3-0.1,3.8,1.5,3.8,1.5c0.3,0-1.5-1.6-2.4-2c-0.8-0.3-1.8-0.2-2.6-0.1
		c-0.8,0.1-0.8,0.1-1.6,0.4C62.6,47,62.5,47.7,62,48.2c-0.4-0.2-0.8-0.3-1.1-0.3c0.4,0.3,2,0.9,2.3,1.2C62.8,48.7,62.4,48.5,62,48.2
		z"/>
	<path class="st2" d="M61.7,49.2c0,0-0.9-1.2-2.3-1.5"/>
	<path class="st2" d="M59.4,46.7c0,0,1.2,0.9,2.6,0.9"/>
	<path class="st2" d="M67,46.4l-1.8,0.2c-0.5,0.5-0.4,1.1,0.1,1.5c0.5,0.5,1.3,0.5,1.8,0C67.5,47.7,67.5,46.9,67,46.4z M66.9,47.5
		c-0.2,0-0.4-0.1-0.5-0.3c0-0.2,0.1-0.4,0.3-0.5c0.2,0,0.4,0.1,0.5,0.3C67.3,47.3,67.1,47.5,66.9,47.5z"/>
	<path class="st2" d="M65.9,45.8c-0.2,0-0.4,0-0.6,0.1c-0.2,0-0.4,0.1-0.6,0.1c-0.4,0.1-0.7,0.3-1,0.6c-0.1,0.1-0.2,0.1-0.2,0.2
		c-0.1,0.1-0.2,0.1-0.2,0.2L63,47.2c-0.1,0.1-0.1,0.1-0.2,0.2c-0.3,0.3-0.6,0.6-0.9,0.8l-0.2-0.1c0.2-0.4,0.5-0.7,0.8-1
		s0.6-0.6,0.9-0.8c0.3-0.2,0.7-0.4,1.2-0.5c0.2,0,0.4,0,0.6,0C65.5,45.7,65.7,45.8,65.9,45.8z"/>
	<g>
		<g>
			<g>
				<g>
					<path d="M85.9,42.2c-0.4-0.3-0.9-0.7-1.3-0.8c-0.4-0.2-1.7-0.1-3.1,0.1c-0.3,0.1-0.5,0.1-0.8,0.2c-0.9,0.3-1.9,0.5-2.8,1
						c-0.4,0.2-0.7,0.4-1.1,0.5c0,0.3,0.1,0.9,0.1,1l0,0c-0.1-0.1-0.2-0.2-0.3-0.3c0,0.2,0.1,0.5,0.2,0.7c0.2,0.1,0.4,0.3,0.6,0.4
						c1.9-1.1,3.9-2,6.2-1.8c1.3,0.1,2.4,0.3,3.3,1l0.1-0.1C86.9,43.4,86.3,42.7,85.9,42.2z"/>
				</g>
			</g>
			<g>
				<g>
					<path d="M87,44c-1.9-1.5-4.2-2-6.5-1.3c-1.1,0.4-2.1,1-3.2,1.6c-0.2,0.1-0.4,0.1-0.6,0.1c0,0.1,0,0.1,0.1,0.2
						c0.2,0.1,0.4,0.3,0.6,0.4c1.9-1.1,3.9-2,6.2-1.8c1.3,0.1,2.4,0.3,3.3,1C86.9,44.1,86.9,44.1,87,44L87,44z"/>
				</g>
			</g>
		</g>
		<g>
			<g>
				<g>
					<path d="M60.8,42.2c0.4-0.3,0.9-0.7,1.3-0.8c0.4-0.2,1.7-0.1,3.1,0.1c0.3,0.1,0.5,0.1,0.8,0.2c0.9,0.3,1.9,0.5,2.8,1
						c0.4,0.2,0.7,0.4,1.1,0.5c0,0.3-0.1,0.9-0.1,1l0,0c0.1-0.1,0.2-0.2,0.3-0.3c0,0.2-0.1,0.5-0.2,0.7c-0.2,0.1-0.4,0.3-0.6,0.4
						c-1.9-1.1-3.9-2-6.2-1.8c-1.3,0.1-2.4,0.3-3.3,1l-0.1-0.1C59.8,43.4,60.4,42.7,60.8,42.2z"/>
				</g>
			</g>
			<g>
				<g>
					<path d="M59.7,44c1.9-1.5,4.2-2,6.5-1.3c1.1,0.4,2.1,1,3.2,1.6c0.2,0.1,0.4,0.1,0.6,0.1c0,0.1,0,0.1-0.1,0.2
						c-0.2,0.1-0.4,0.3-0.6,0.4c-1.9-1.1-3.9-2-6.2-1.8c-1.3,0.1-2.4,0.3-3.3,1C59.8,44.1,59.7,44.1,59.7,44L59.7,44z"/>
				</g>
			</g>
		</g>
	</g>
	<path d="M54.7,49.1c-0.3,0.6,0,1.6,0.1,2.2c0.1,0.3,0.2,0.7,0.2,1c0,0.1,0,0.2,0,0.2l-0.1,0.1l0,0l0,0l0,0c-0.2,0-0.3-0.1-0.3-0.2
		v-0.1l0,0c0-0.2-0.1-0.3-0.1-0.5c-0.2-0.4-0.3-0.9-0.4-1.3c-0.2-0.6-0.7-3.9,0.9-3.6c0.6,0.1,1.4,1.4,1.3,2V49
		C56,49.9,54.7,49.1,54.7,49.1z M56.4,55.2c-0.1-0.1-0.3-0.2-0.4-0.3c-0.1-0.1-0.4-0.4-0.6-0.4l0,0c0,0.2,0.3,0.4,0.4,0.6
		c0.2,0.2,0.4,0.6,0.7,0.8c0.2,0.1,0.4-0.2,0.3-0.3C56.7,55.4,56.6,55.3,56.4,55.2z M56.5,50.5c0-0.1-0.2-0.3-0.3-0.3
		c-0.2,0-0.3,0.4-0.4,0.5c-0.4,0.7-0.6,1.8-0.4,2.5c0.2,0.5,1.1,1.2,1.5,0.5S56,51.6,56.5,50.5z M91.7,52.4c0,0.1,0,0.2,0.1,0.4
		c0.2,0.3,0.4-0.5,0.4-0.6c0.1-0.5,0.3-1,0.4-1.5c0.2-0.6,0.7-3.9-0.9-3.6c-0.6,0.1-1.4,1.4-1.3,2v0.1c0.3,0.8,1.6,0,1.6,0
		c0.3,0.6,0,1.6-0.1,2.2C91.7,51.7,91.6,52.1,91.7,52.4z M89.8,53.8c0.4,0.7,1.3,0.1,1.5-0.5c0.2-0.7,0-1.9-0.4-2.5
		c-0.1-0.1-0.2-0.6-0.4-0.5c-0.1,0-0.3,0.2-0.3,0.3C90.6,51.6,89.3,53,89.8,53.8z M90.6,54.9c-0.1,0.1-0.3,0.2-0.4,0.3
		s-0.3,0.2-0.4,0.3c-0.1,0.2,0,0.4,0.3,0.3c0.3-0.1,0.5-0.5,0.7-0.8c0.1-0.2,0.4-0.4,0.4-0.6l0,0C91,54.5,90.8,54.8,90.6,54.9z
		 M92.4,55.7c-0.4,0.6-0.8,1.3-1.3,1.9c-0.5,0.9-1,1.7-2.4,1.1c-0.1,0-0.5,0.3-0.5,0.5c-0.1,0.9-0.3,1.8-0.6,2.7l0,0l0,0
		c-0.2,0.5-0.4,1-0.6,1.4c-0.6,1.3-1.2,2.5-2.1,3.6c-0.6,0.7-1.2,1.4-1.9,2c-1.7,1.5-3,3.4-5.2,4.3c-1.7,0.7-3.6,0.7-5.3,0.5
		c-1.3-0.1-2.6-0.5-3.7-1.1c-2.5-1.4-4.6-3.3-6.4-5.4c-2-2.3-3.6-4.8-3.8-7.9c0-0.2-0.5-0.5-0.5-0.5c-1.3,0.6-1.9-0.3-2.4-1.1
		c-0.5-0.6-1-1.3-1.3-1.9c-1.1-1.8-2-4.7-1.6-6.8c0.2-1.1,0.4-2.1,0.7-3.2c0.2-0.8,0.7-1.3,1.5-1.3c0.9,0,0.9-0.3,0.7-1
		c-0.9-4.2-1.5-8.4-0.6-12.7c0.3-1.5,0.9-2.9,2.2-3.9c2-1.5,4-3,6-4.4c2.1-1.5,4.5-2.6,7.2-2.9c0.3,0,0.5-0.2,0.7-0.3h2.6
		c2.3,0.7,4.6,1.1,7,1.1c2.8,0,3.9,1.9,4.6,3.8c0.1,0.2,0,0.4-0.1,0.6c-0.2-0.1-0.3-0.3-0.5-0.4c-0.2-0.3-0.3-0.6-0.5-0.9
		c-0.3-0.6-0.3-0.6-0.8-0.2c-0.1,0.1-0.6-0.2-0.7,0.3c0,0.1-0.3,0.2-0.3,0.2c0,0.2,0.1,0.4,0.1,0.6c-0.4,0-0.8,0.2-1.1,0.1
		c-0.7-0.3-1.3-0.8-1.9-1.3c-0.2-0.1-0.4-0.3-0.6-0.4s-0.4-0.1-0.6-0.1c0.1,0.2,0.2,0.3,0.3,0.4c0.5,0.4,1.1,0.8,1.7,1.3
		c0.1,0.1,0.2,0.2,0.3,0.3c-0.1,0-0.3,0.1-0.4,0.1c-0.4,0-0.7-0.1-1.1-0.1c0.3,0.3,0.5,0.7,0.9,0.9c0.5,0.3,0.8,1.3,1.7,0.8
		c0.1,0,0.3,0.3,0.5,0.4s0.3,0.3,0.5,0.5c-0.1-0.2-0.1-0.4-0.2-0.6c0-0.1-0.1-0.2-0.2-0.3c-0.1-0.3-0.2-0.6-0.3-0.9
		c0.2,0.2,0.4,0.4,0.6,0.6c0.1,0.1,0.1,0.3,0.3,0.4c0.2,0.1,0.5,0.2,0.7,0.3c0-0.2,0-0.4,0-0.7c0-0.2,0-0.4,0-0.6
		c0.2,0.2,0.3,0.3,0.5,0.5c0.4,0.2,0.9,0.4,1.2,0.7c0.9,1.1,0.5,2.6-0.9,3.3c-0.9,0.4-1.8,0.8-2.7,1.2c-0.1,0-0.4,0-0.4-0.1
		c-0.2-0.4-0.3-0.5-0.6-0.1c0,0-0.5,0-0.7,0c-0.1,0-0.3,0-0.4,0c-0.3,0.1-0.5,0.3-0.7,0.5c-0.1-0.3-0.3-0.6-0.4-0.9
		c-0.1-0.2-0.2-0.4-0.2-0.6c0,0.2,0,0.4,0,0.6c0,1-0.8,0.8-1.3,0.8s-1.1,0-1.5-0.1s-0.8-0.4-1.2-0.7c-0.2-0.2-0.2-0.6-0.4-0.8
		c-0.1-0.2-0.4-0.4-0.6-0.6c0.1,0.2,0.1,0.5,0.2,0.7c0.1,0.4,0.3,0.7,0.3,1.1c0,0.1-0.4,0.4-0.4,0.4c-1.6-0.7-3.2-0.3-4.7-0.2
		c-0.1,0-0.2,0-0.2,0c-1.1-0.1-2.3-0.3-3.4,0.1c-0.2,0.1-0.6-0.2-0.8-0.4c-0.3-0.2-0.6-0.5-0.9-0.7c-0.3-0.2-0.6-0.2-1-0.2
		c0.2,0.2,0.5,0.4,0.7,0.6c1,0.5,1,1.2,0,1.7c-0.4,0.3-0.9,0.5-1.4,0.7c-1.3,0.4-1.6,1.4-1.9,2.5c-0.4,1.4-0.7,2.9-1,4.3
		c-0.1,0.3,0.1,0.7,0.1,1.1c-0.2,1.3-0.4,2.5-0.6,3.8c-0.1,0.6,0.1,1.2,0.1,1.8c0,0.5,0.1,1.2-0.6,1.1c-0.3,0-0.7-0.5-1-0.9
		c-0.2-0.3-0.2-0.8-0.4-1c-0.3-0.4-0.8-0.9-1.1-0.8c-0.5,0.1-1.2,0.5-1.3,0.9c-0.1,0.5-0.3,1-0.4,1.6c-0.4,1.7-0.7,3.7,0.1,5.3
		c0.1,0.3,0.3,0.6,0.4,0.9c0.3,0.6,0.6,1.1,0.9,1.7c0.3,0.6,0.5,1.2,0.7,1.7c0.3,0.5,0.6,0.9,1,1.2c0.2,0.1,0.3,0.4,0.5,0.4
		s0.4,0,0.5,0c0.3-0.1,0.5-0.5,0.4-0.8c-0.1-1.3-0.2-2.6-0.4-4c-0.1-0.9-0.1-1.7-0.2-2.6c0-0.1,0.1-0.3,0.2-0.4
		c0.1,0.1,0.2,0.2,0.2,0.4c0.1,0.9,0.3,1.7,0.4,2.6c0.3,2.2,0.5,4.4,0.8,6.5c0.6,3.9,3.1,6.7,6.1,9.2c0.9,0.7,1.8,1.5,2.7,2.2
		c2.5,2,6.3,2.2,9.3,1.3c0.3-0.1,0.7-0.2,1-0.4c0.4-0.2,0.7-0.4,1.1-0.7c0.3-0.2,0.5-0.4,0.8-0.5c1.5-1.3,2.9-2.9,4-4.3
		c0.9-1.1,1.7-2.4,2.4-3.6c0.5-1,0.8-2,1-3.1c0.4-2.2,0.6-4.3,0.9-6.5c0.1-0.9,0.2-1.7,0.4-2.6c0-0.1,0.2-0.2,0.2-0.4
		c0.1,0.1,0.2,0.3,0.2,0.4c0,0.9-0.1,1.7-0.2,2.6c-0.1,1.3-0.3,2.6-0.4,4c0,0.4,0.3,0.9,0.7,0.8c1.5-0.1,1.9-2.3,2.5-3.2
		c0.6-1.1,1.1-2.2,1.6-3.3c0.4-2.1-0.1-4.1-0.6-6.2c-0.1-0.4-0.8-0.8-1.3-0.9c-0.3,0-0.8,0.5-1.1,0.8c-0.2,0.3-0.2,0.7-0.4,1
		c-0.2,0.4-0.6,0.9-1,0.9c-0.9,0-0.7-0.9-0.3-1.6c0,0-0.1-0.1-0.1-0.2c0.3-2.2,0.5-4.5,1-6.6c0.3-1.3,0.1-2.4-0.8-3.5
		c-0.7-0.8-0.5-1.2,0.6-1.5c0.4-0.1,0.8-0.1,1.2-0.2c0.2-0.1,0.4-0.2,0.6-0.3c-0.3,0-0.5-0.2-0.8-0.1c-0.5,0.1-1,0.3-1.5,0.5
		c-0.8,0.2-1.3,0.1-1.8-0.7c-0.4-0.7-1-1.3-1.6-1.9s-0.6-1.2,0-1.7c0.5-0.4,1.1-0.8,1.7-1.2c0.2-0.1,0.5-0.2,0.7-0.3
		c0.3-0.2,0.5-0.5,0.8-0.7c-0.5-0.1-1.3-0.5-1.5-0.4c-0.6,0.6-0.7,0.1-0.8-0.3c-0.1-0.3-0.2-0.6-0.3-0.9c-0.1-0.5,0.1-0.7,0.6-0.5
		c0.7,0.2,1.4,0.4,1.9,0.9c0.9,1,1.7,2.1,2.3,3.2c0.7,1.5,1.2,3.1,1.6,4.7c0.2,0.7,0.2,1.5,0,2.2c-0.7,2.4-0.7,4.9-1.5,7.3l0,0
		c-0.1,0.5,0.1,0.7,0.8,0.7c0.9,0,1.4,0.5,1.5,1.3c0.2,1.1,0.4,2.1,0.7,3.2C94.5,51,93.6,54,92.4,55.7z"/>
	<g>
		<path d="M80.8,59.3c0.1,0.3,0.1,0.7-0.3,0.8c-0.2,0-0.3,0.1-0.5,0.1c-0.5,0.1-1,0.1-1.5,0.2c-1,0.1-2.1,0.1-3.2,0.1
			c-1.5,0-3.1-0.5-4.5-0.2c-0.1,0-0.3,0-0.4,0c-0.8,0.2-1.6,0.4-2.4,0.4c-0.3,0-0.6,0-0.8-0.1c-0.4,0-0.7-0.2-0.9-0.4
			c0.2,0.6,0.6,0.8,1.2,0.8c1,0.9,1.3,2.4,2.6,3c1.2,0.6,2.8,0.9,4.1,0.8c1.2,0,2.4-0.4,3.3-1.2c0.5-0.4,0.7-0.9,0.9-1.4
			c0.4-0.9,0.9-1.3,1.7-1.9l0,0c0.1,0,0.2-0.1,0.4-0.1c0.1,0,0.1,0,0.2-0.1l0,0l0,0c0.1,0,0.1-0.1,0.1-0.1
			C81.2,59.8,81,59.5,80.8,59.3z M78.4,62.2c-0.7,1.4-1.8,2.1-3.6,2.3c-1.4,0.1-2.9-0.2-4.2-0.7c-1.4-0.5-1.7-2-2.8-2.8
			c0.1,0,0.2,0,0.3,0c1.5-0.1,2.9-0.7,4.4-0.7l0,0c1.2,0.1,2.4,0.4,3.5,0.4c1,0,2.3,0.1,3.5-0.1C79,61,78.6,61.7,78.4,62.2z"/>
		<path d="M78.4,62.2c-0.7,1.4-1.8,2.1-3.6,2.3c-1.4,0.1-2.9-0.2-4.2-0.7c-1.4-0.5-1.7-2-2.8-2.8c0.1,0,0.2,0,0.3,0
			c1.5-0.1,2.9-0.7,4.4-0.7l0,0c1.2,0.1,2.4,0.4,3.5,0.4c1,0,2.3,0.1,3.5-0.1C79,61,78.6,61.7,78.4,62.2z"/>
		<path class="st0" d="M78,61.6c0.2-0.3,0.4-0.5,0.6-0.8c-0.9,0.1-1.8,0-2.6,0c-1.1-0.1-2.3-0.3-3.5-0.4l0,0c-1.2,0-2.2,0.4-3.4,0.6
			c0.3,0.6,0.6,1,1.5,1.2s1.7,0.4,2.6,0.4c1.1,0.1,2.1,0,3.1-0.2C77,62.2,77.5,61.9,78,61.6z"/>
		<path class="st0" d="M74.3,63.4c-1.3-0.1-2.4,0.1-3.5,0.5c1.2,0.4,2.7,0.7,4,0.6c0.6-0.1,1.2-0.2,1.6-0.4
			C75.8,63.7,75.1,63.5,74.3,63.4z"/>
		<path d="M71.4,66.2c1.1,1,3.1,1,4.2,0.1l0.1-0.1C74.2,66.5,72.8,66.7,71.4,66.2z"/>
	</g>
	<path class="st2" d="M78.9,64.6c0.9-1.6,2.6-1.6,3-4.2"/>
	<path class="st2" d="M68.9,65.2c-0.9-1.6-2.6-1.6-3-4.2"/>
	<path class="st3" d="M76.8,48.1c0.2-0.5,0.4-1,0.7-1.4c0.3-0.4,0.7-0.8,1.2-1.1s1-0.5,1.5-0.7s1-0.3,1.6-0.3
		c-0.3,0.1-0.5,0.1-0.8,0.2c-0.2,0.1-0.5,0.2-0.7,0.3c-0.5,0.2-1,0.4-1.4,0.7c-0.1,0.1-0.2,0.2-0.3,0.2c-0.1,0.1-0.2,0.2-0.3,0.3
		c-0.2,0.2-0.4,0.4-0.5,0.6C77.4,47.3,77.2,47.7,76.8,48.1L76.8,48.1z"/>
	<path class="st3" d="M69.9,48.2c-0.3-0.4-0.6-0.9-0.9-1.3c-0.2-0.2-0.3-0.4-0.5-0.6c-0.1-0.1-0.2-0.2-0.3-0.3
		c-0.1-0.1-0.2-0.2-0.3-0.2c-0.4-0.3-0.9-0.5-1.4-0.7c-0.2-0.1-0.5-0.2-0.7-0.3s-0.5-0.1-0.8-0.2c0.5,0.1,1,0.2,1.6,0.3
		c0.5,0.2,1,0.4,1.5,0.7s0.9,0.7,1.2,1.1C69.5,47.2,69.7,47.7,69.9,48.2L69.9,48.2z"/>
	<path d="M77.9,48.4c0,0.2-0.2,0.4-0.4,0.4S77,48.6,77,48.4"/>
	<path d="M70,48.3c0,0.2-0.2,0.4-0.4,0.4s-0.4-0.2-0.4-0.4"/>
</g>
<g>
	<path class="st0" d="M54.7,49.2c0-0.4-0.3-0.8-0.6-1c-0.6-0.5-1.3-0.6-2-0.6c-0.2,0-0.3,0-0.5,0c-0.1,0-0.2,0-0.3,0.1
		c1.9-6.7,4.3-19.6-11.5-21.9H27.5C9.1,29.1,14.9,47.5,14.9,47.5c-0.7,0-1.4,0.2-2,0.6c-0.3,0.2-0.5,0.6-0.6,1
		c0,0.4,0.1,0.8,0.2,1.1c0.3,0.6,0.5,1.2,0.8,1.8c0.2,0.6,0.3,1.3,0.4,1.9c0,0.1,0,0.2,0,0.2v0.1c0,0,0,0.1,0,0.2
		c0,0.2,0.1,0.4,0.2,0.6c0.2,0.3,0.4,0.6,0.7,0.9c0.3,0.2,0.6,0.5,1,0.6c0.1,0,0.3,0.1,0.4,0.1c0,0.2,0,0.4,0.1,0.6
		c0.2,1.4,0.7,3.5,1.6,4.8c0.4,0.6,0.9,1.2,1.6,1.6c1.3,1,4.9,2.6,6.3,3c1.3,0.3,3,0.9,4,1.4c0.4,0.6,0.8,1.1,1.4,1.6
		c0.3,0.3,0.7,0.6,1.2,0.8c0.4,0.2,0.9,0.4,1.4,0.4s1-0.1,1.5-0.3c0.4-0.2,0.8-0.5,1.2-0.8c0.4-0.4,0.8-0.9,1.2-1.4
		c1.6-0.8,6.8-3.1,9.2-4c0.4-0.1,1-0.5,1.3-0.7c0.6-0.4,1.1-1,1.6-1.6c0.8-1.2,1.3-3.3,1.5-4.8c0-0.2,0-0.4,0.1-0.5
		c0.2,0,0.4,0,0.5-0.1c0.4-0.1,0.7-0.3,1-0.6s0.5-0.5,0.7-0.9c0.1-0.2,0.2-0.4,0.2-0.6c0,0,0-0.1,0-0.2v-0.1c0-0.1,0-0.1,0-0.2
		c0.1-0.6,0.2-1.3,0.4-1.9c0.2-0.6,0.5-1.2,0.8-1.8C54.6,49.9,54.7,49.6,54.7,49.2z"/>
	<g>
		<path class="st2" d="M16.9,50.6L16.9,50.6c-0.1-0.3-0.2-0.6-0.3-0.8c-0.1-0.2-0.3-0.4-0.5-0.6C16,49.1,15.9,49,15.7,49
			c-0.1,0-0.2,0-0.2-0.1c-0.1,0-0.1,0-0.2,0c-0.4,0-0.8,0-1.3,0.1c-0.1,0-0.3,0.1-0.3,0.3c-0.1,0.1,0,0.3,0,0.4
			c0,0.2,0.1,0.4,0.1,0.6c0.1,0.4,0.1,0.8,0.1,1.2c0,0.1,0,0.2,0,0.3V52c0,0.1,0,0.1,0.1,0.2c0.1,0.2,0.2,0.4,0.4,0.6
			c0.3,0.3,0.6,0.6,1.1,0.7c-0.4-0.2-0.6-0.6-0.8-0.9c-0.1-0.2-0.2-0.3-0.3-0.5c0-0.1-0.1-0.4-0.1-0.6c-0.1-0.4-0.3-0.8-0.4-1.2
			c0-0.2-0.1-0.4-0.1-0.6c0-0.1,0-0.2,0.1-0.2s0.1,0,0.2,0c0.3,0.1,0.7,0.3,1.1,0.4h0.1c0,0,0,0,0.1,0l0.1,0.1l0.1,0.1
			c-0.1,0.1-0.2,0.1-0.3,0.2c-0.6,0.4-0.9,0.6-0.5,1s1.2,0.3,1.6,0.9c0,0.2-0.1,0.4-0.1,0.5c-0.2,1-0.3,2-0.3,3.1c0,0-0.1,0-0.1-0.1
			c-0.2-0.1-0.4-0.3-0.6-0.5c-0.2-0.2-0.4-0.4-0.5-0.7c-0.1-0.1-0.1-0.2-0.2-0.3c0,0,0,0,0-0.1V54c0-0.1-0.1-0.2-0.1-0.3
			c-0.2-0.7-0.5-1.2-0.8-1.9c-0.2-0.6-0.4-1.2-0.6-1.9C13,49.6,12.9,49.3,13,49c0-0.3,0.2-0.5,0.4-0.6c0.4-0.3,1.1-0.5,1.7-0.5
			c1.2-0.2,1.9,1,2.2,2.1C17.1,50.2,17,50.4,16.9,50.6z M46.3,63.5c-1.5,0.5-8,3.8-9.4,4.9c0,0,6.9-3.2,9.7-4.3
			c0.4-0.1,1-0.5,1.3-0.7c0.6-0.4,1.2-1,1.6-1.6c0.8-1.2,1.3-3.4,1.5-4.8c0-0.2,0-0.4,0.1-0.5c0.2,0,0.4,0,0.5-0.1
			c0.4-0.1,0.7-0.3,1-0.6s0.5-0.5,0.7-0.9c0.1-0.2,0.2-0.4,0.2-0.6c0,0,0-0.1,0-0.2V54c0-0.1,0-0.1,0-0.2c0.1-0.6,0.2-1.3,0.4-1.9
			c0.2-0.6,0.5-1.2,0.8-1.8c0.1-0.3,0.3-0.7,0.2-1.1c0-0.4-0.3-0.8-0.6-1c-0.6-0.5-1.3-0.6-2-0.6c-0.2,0-0.3,0-0.5,0
			c-0.1,0-0.2,0-0.3,0.1c1.9-6.7,4.3-19.7-11.6-22l8.7-4.2l-0.8-1.1L40,24.4c0.1-0.3,0.2-0.7,0.2-1c0-2.7-2.9-4.8-6.5-4.8
			s-6.5,2.2-6.5,4.8c0,0.3,0,0.6,0.1,1l-8.8-4.1l-0.8,1.1l9.9,4.2C9,29,14.9,47.4,14.9,47.4c-0.7,0-1.4,0.2-2,0.6
			c-0.3,0.2-0.5,0.6-0.6,1c0,0.4,0.1,0.8,0.2,1.1c0.3,0.6,0.5,1.2,0.8,1.8c0.2,0.6,0.3,1.3,0.4,1.9c0,0.1,0,0.2,0,0.2v0.1
			c0,0,0,0.1,0,0.2c0,0.2,0.1,0.4,0.2,0.6c0.2,0.3,0.4,0.6,0.7,0.9c0.3,0.2,0.6,0.5,1,0.6c0.1,0,0.3,0.1,0.4,0.1
			c0,0.2,0,0.4,0.1,0.6c0.2,1.4,0.7,3.6,1.6,4.8c0.4,0.6,1,1.2,1.6,1.6c1.3,1,5,2.6,6.4,3c1.3,0.3,3.2,1,4.1,1.5c0,0-1.7-1.3-4-1.9
			c-2.5-0.6-4-1.5-6.1-3c-0.5-0.4-1-0.9-1.4-1.5c-0.7-1.1-1.1-3.2-1.3-4.5c-0.2-1.4-0.1-2.7,0.2-4.1c0.1-0.7,0.4-1.3,0.6-1.9
			c0.1-0.3,0.3-0.6,0.5-0.9l0.1-0.2l0.1-0.1l0.1-0.2c0.1-0.2,0.1-0.4,0.2-0.5l0,0c0.3-0.7,0.3-0.6,0.3-2.3c0-0.7,0.1-1.4,0.1-2.1
			c0-1.4,0.8-2.3,0.8-3.7c0.1-0.1,4.4-1.9,6.2-5.5c2.2,4.2,14.1,6.7,21.8,5c0,1.4,0,2.7,0.1,4.1c0,0.7,0.1,1.4,0.1,2
			c0,0.8,0.2,2,0.4,2.6c0,0.1,0.1,0.2,0.1,0.3c0.1,0.1,0.1,0.2,0.1,0.2l0.1,0.2c0.2,0.3,0.3,0.6,0.5,0.9c0.3,0.6,0.5,1.3,0.6,1.9
			c0.3,1.3,0.3,2.7,0.1,4.1c-0.2,1.4-0.6,3.4-1.4,4.5c-0.4,0.6-0.8,1.1-1.4,1.4C47.2,63,46.6,63.4,46.3,63.5z M54.2,50
			c-0.2,0.6-0.4,1.3-0.6,1.9c-0.2,0.6-0.5,1.2-0.8,1.9c0,0.1-0.1,0.2-0.1,0.3v0.1c0,0,0,0,0,0.1s-0.1,0.2-0.2,0.3
			c-0.1,0.2-0.3,0.5-0.5,0.7s-0.4,0.4-0.6,0.5c-0.1,0-0.1,0.1-0.2,0.1c0-1.1,0-2.1-0.3-3.1c0-0.2-0.1-0.3-0.1-0.4
			c0.4-0.7,1.2-0.6,1.6-1c0.4-0.4,0.1-0.6-0.5-1c-0.1-0.1-0.2-0.1-0.3-0.2l0.1-0.1l0.1-0.1c0,0,0,0,0.1,0H52
			c0.4-0.1,0.8-0.4,1.1-0.4c0.1,0,0.1,0,0.2,0c0.1,0,0.1,0.1,0.1,0.2c0,0.2,0,0.4-0.1,0.6c-0.1,0.4-0.3,0.8-0.4,1.2
			c-0.1,0.2-0.1,0.4-0.1,0.6c-0.1,0.2-0.2,0.3-0.3,0.5c-0.2,0.3-0.4,0.7-0.8,0.9c0.4,0,0.8-0.4,1.1-0.7c0.1-0.2,0.3-0.3,0.4-0.6
			c0-0.1,0-0.1,0.1-0.2v-0.2c0-0.1,0-0.2,0-0.3c0-0.4,0-0.8,0.1-1.2c0-0.2,0.1-0.4,0.1-0.6c0-0.1,0-0.2,0-0.4
			c-0.1-0.1-0.2-0.2-0.3-0.3c-0.5-0.2-0.9-0.2-1.3-0.1c-0.1,0-0.1,0-0.2,0c-0.1,0-0.2,0-0.2,0.1c-0.2,0.1-0.3,0.1-0.4,0.2
			c-0.2,0.2-0.4,0.4-0.5,0.6c-0.2,0.3-0.3,0.6-0.3,0.9v-0.1c-0.1-0.1-0.1-0.3-0.2-0.4c0.3-1.1,1.1-2.3,2.3-2.1
			c0.6,0,1.2,0.1,1.7,0.5c0.2,0.2,0.3,0.4,0.4,0.6C54.4,49.4,54.3,49.7,54.2,50z"/>
		<g>
			<g>
				<g>
					<g>
						<path d="M44.2,44.6c-0.3-0.3-0.8-0.6-1.1-0.7c-0.4-0.2-1.5-0.1-2.7,0C40.2,44,40,44,39.8,44.1c-0.8,0.2-1.7,0.4-2.4,0.8
							c-0.3,0.2-0.6,0.3-0.9,0.5c0,0.3,0,0.3,0,0.5l0,0c-0.1-0.1-0.1-0.2-0.2-0.3c0,0.2,0.1,0.4,0.2,0.6c0.2,0.1,0.3,0.2,0.5,0.3
							c1.6-0.9,3.4-1.7,5.3-1.6c1.1,0.1,2,0.3,2.9,0.9c0,0,0.1,0,0.1-0.1C45.1,45.3,44.6,45.1,44.2,44.6z"/>
					</g>
				</g>
			</g>
			<g>
				<g>
					<g>
						<path d="M22.5,44.6c0.3-0.3,0.8-0.6,1.1-0.7c0.4-0.2,1.5-0.1,2.7,0c0.2,0.1,0.4,0.1,0.6,0.2c0.8,0.2,1.7,0.4,2.4,0.8
							c0.3,0.2,0.6,0.3,0.9,0.5c0,0.3,0.1,0.4,0,0.5l0,0c0.1-0.1,0.1-0.2,0.2-0.3c0,0.2-0.1,0.4-0.2,0.6c-0.2,0.1-0.3,0.2-0.5,0.3
							c-1.6-0.9-3.4-1.7-5.3-1.6c-1.1,0.1-2,0.3-2.9,0.9c0,0-0.1,0-0.1-0.1C21.8,45.3,22.2,45.1,22.5,44.6z"/>
					</g>
				</g>
				<g>
					<g>
						<path d="M21.7,45.8c0.6-0.5,4.3-1.5,5.6-1.1c1,0.3,1.8,0.9,2.8,1.3c0.2,0.1,0.4,0.1,0.5,0c0,0.1,0,0.1-0.1,0.1
							c-0.2,0.1-0.3,0.2-0.5,0.3c-1.6-0.9-3.4-1.7-5.3-1.6c-1.1,0.1-2,0.3-2.9,0.9C21.8,45.8,21.7,45.8,21.7,45.8L21.7,45.8z"/>
					</g>
				</g>
			</g>
		</g>
		<g>
			<path d="M39.4,57.6c0.1,0.3,0.1,0.6-0.2,0.7c-0.1,0-0.3,0.1-0.4,0.1c-0.4,0.1-0.8,0.1-1.3,0.2c-0.9,0.1-1.8,0.1-2.7,0.1
				c-1.3,0-2.6-0.4-3.8-0.1c-0.1,0-0.2,0-0.3,0c-0.7,0.1-1.3,0.3-2,0.4c-0.3,0-0.5,0-0.7-0.1c-0.3,0-0.6-0.1-0.7-0.3
				c0.2,0.5,0.5,0.7,1,0.7c0.9,0.7,1.1,2,2.2,2.5c1,0.5,2.3,0.7,3.5,0.7c1,0,2.1-0.4,2.8-1c0.4-0.3,0.6-0.7,0.8-1.2
				c0.3-0.7,0.8-1.1,1.4-1.6l0,0c0.1,0,0.2-0.1,0.3-0.1c0,0,0.1,0,0.1-0.1l0,0l0,0l0.1-0.1C39.7,58.1,39.6,57.8,39.4,57.6z
				 M37.4,60.1c-0.6,1.2-1.6,1.8-3,1.9c-1.2,0.1-2.5-0.2-3.5-0.6c-1.2-0.4-1.5-1.7-2.4-2.3c0.1,0,0.2,0,0.3,0
				c1.3-0.1,2.4-0.6,3.7-0.6l0,0c1,0.1,2,0.3,3,0.4c0.8,0,2,0.1,2.9-0.1C37.9,59.1,37.6,59.6,37.4,60.1z"/>
			<path d="M37.4,60.1c-0.6,1.2-1.6,1.8-3,1.9c-1.2,0.1-2.5-0.2-3.5-0.6c-1.2-0.4-1.5-1.7-2.4-2.3c0.1,0,0.2,0,0.3,0
				c1.3-0.1,2.4-0.6,3.7-0.6l0,0c1,0.1,2,0.3,3,0.4c0.8,0,2,0.1,2.9-0.1C37.9,59.1,37.6,59.6,37.4,60.1z"/>
			<path class="st0" d="M37,59.6c0.2-0.2,0.4-0.4,0.5-0.7c-0.7,0.1-1.5,0-2.2,0c-1,0-2-0.3-3-0.4l0,0c-1,0-1.9,0.3-2.8,0.5
				c0.3,0.5,0.5,0.9,1.3,1c0.7,0.1,1.4,0.3,2.2,0.3c0.9,0,1.8,0,2.6-0.2C36.2,60,36.7,59.9,37,59.6z"/>
			<path class="st0" d="M33.9,61.1c-1.1-0.1-2,0.1-2.9,0.5c1,0.3,2.2,0.6,3.3,0.5c0.5,0,1-0.2,1.4-0.3
				C35.2,61.4,34.6,61.1,33.9,61.1z"/>
			<path d="M31.4,63.4c0.9,0.8,2.6,0.9,3.6,0.1l0.1-0.1C33.8,63.7,32.6,63.8,31.4,63.4z"/>
		</g>
		<path class="st2" d="M35.9,69.1c-0.7,0.5-1.5,0.9-2.3,0.9c-0.2,0-0.4,0-0.6-0.1c-0.2-0.1-0.4-0.1-0.6-0.2
			c-0.4-0.2-0.8-0.4-1.1-0.7c-0.7-0.5-1.4-1.1-2-1.8c0.5,0.8,1,1.5,1.7,2.2c0.3,0.3,0.7,0.6,1.2,0.8c0.4,0.2,0.9,0.4,1.4,0.4
			s1-0.1,1.5-0.3c0.4-0.2,0.8-0.5,1.2-0.8c0.7-0.6,1.3-1.4,1.7-2.3C37.3,67.9,36.6,68.5,35.9,69.1z"/>
		<path class="st2" d="M32.9,54.5c0,0-0.9-0.9-1.4-0.6C31.1,54.3,32,54.7,32.9,54.5z"/>
		<path class="st2" d="M34,54.5c0.9,0.2,1.8-0.2,1.4-0.6C35,53.6,34,54.5,34,54.5z"/>
		<path class="st2" d="M35.5,54.7c0.2,0,0.5-0.1,0.6-0.3c0.2-0.2,0.2-0.6,0.1-0.8c-0.1-0.2-0.2-0.4-0.3-0.6
			c-0.1-0.2-0.3-0.3-0.4-0.5c-0.1,0.2,0,0.5,0.1,0.7s0.1,0.4,0.2,0.6c0,0.2,0.1,0.3,0,0.5C35.7,54.3,35.6,54.5,35.5,54.7z"/>
		<path class="st2" d="M31,53c-0.1,0.2-0.3,0.4-0.3,0.6c-0.1,0.2-0.1,0.6,0.1,0.8s0.4,0.3,0.6,0.3c-0.1-0.2-0.2-0.4-0.3-0.5
			c0-0.1,0-0.3,0-0.5s0.1-0.4,0.2-0.6c0.1-0.2,0.1-0.5,0.1-0.7C31.3,52.6,31.1,52.8,31,53z"/>
		<path class="st2" d="M32,55.9v0.3c0,0.1,0,0.2,0.1,0.3c0.1-0.1,0.1-0.2,0.1-0.2l0.1-0.3c0-0.1,0-0.2,0-0.3s0-0.2-0.1-0.3
			c-0.1,0.1-0.1,0.2-0.1,0.2C32,55.7,32,55.8,32,55.9z"/>
		<path class="st2" d="M34.4,55.4c-0.1,0.1-0.1,0.3-0.1,0.4c0,0.1,0,0.3,0,0.4l0.1,0.4c0,0.1,0.1,0.3,0.1,0.4
			c0.1-0.1,0.1-0.3,0.1-0.4v-0.4c0-0.1,0-0.3,0-0.4C34.5,55.6,34.5,55.5,34.4,55.4z"/>
	</g>
	<circle class="st2" cx="48.7" cy="20.5" r="1.3"/>
	<circle class="st2" cx="17.3" cy="20.3" r="1.3"/>
	<path class="st2" d="M27.7,48.1c-0.6-0.1-1.3-0.2-1.9-0.1c-0.6,0.1-1.2,0.2-1.8,0.4c-0.5,0.2-1,0.5-1.5,0.8
		C22.2,49.1,22,49,21.7,49c0.3,0.2,0.5,0.4,0.8,0.6c0.3,0.2,0.5,0.4,0.7,0.6c0.5,0.4,0.9,0.9,1.3,1.4c-0.2-0.6-0.6-1.2-1.1-1.7
		c-0.2-0.2-0.5-0.4-0.8-0.6c1.1-0.2,2.2-0.4,3.3-0.4c0.6,0,1.1-0.1,1.7-0.1s1.2,0.1,1.8,0.1"/>
	<path class="st2" d="M29.9,48.9c-0.5-0.4-1.1-0.7-1.7-0.8"/>
	<path class="st2" d="M29.7,48.5c-0.7-0.7-1.6-1.2-2.5-1.5"/>
	<path class="st2" d="M38.9,47c-0.9,0.2-1.8,0.8-2.5,1.5"/>
	<path class="st2" d="M27,50c-0.4,0-0.8,0.1-1.3,0c-0.9,0-1.7-0.1-2.6-0.1c0.4,0.1,0.8,0.2,1.3,0.3c0.4,0.1,0.9,0.1,1.3,0.2
		c0.4,0,0.9,0,1.3,0s0.9-0.1,1.2-0.5C27.8,49.8,27.4,49.9,27,50z"/>
	<path class="st2" d="M37.2,48.9c0.6,0,1.2-0.1,1.8-0.1s1.1,0,1.7,0.1c1.1,0.1,2.1,0.3,3.3,0.4c-0.3,0.2-0.6,0.4-0.8,0.6
		c-0.5,0.5-0.9,1-1.1,1.7c0.4-0.5,0.8-1,1.3-1.4c0.2-0.2,0.5-0.4,0.7-0.6c0.3-0.2,0.5-0.4,0.8-0.6c-0.3,0-0.5,0.1-0.8,0.2
		c-0.4-0.4-1-0.6-1.5-0.8C42,48.2,41.4,48,40.8,48c-0.6-0.1-1.3,0-1.9,0.1"/>
	<path class="st2" d="M38.1,48.1c-0.6,0.1-1.2,0.4-1.7,0.8"/>
	<path class="st2" d="M39.6,50c0.4,0,0.8,0.1,1.3,0c0.9,0,1.7-0.1,2.6-0.1c-0.4,0.1-0.8,0.2-1.3,0.3c-0.4,0.1-0.9,0.1-1.3,0.2
		c-0.4,0-0.9,0-1.3,0c-0.4,0-0.9-0.1-1.2-0.5C38.8,49.8,39.2,49.9,39.6,50z"/>
	<path class="st2" d="M31.2,42.3c0,0.3,0,0.6,0,0.9v0.9c0,0.3,0,0.6,0.1,0.9c0.1-0.3,0.1-0.6,0.1-0.9l0.1-0.9c0-0.3,0-0.6,0-0.9
		c0-0.3,0-0.6-0.1-0.9C31.2,41.7,31.2,42,31.2,42.3z"/>
	<path class="st2" d="M35.6,43c-0.1,0.2-0.1,0.4-0.1,0.5c0,0.2,0,0.4,0,0.5v0.5c0,0.2,0,0.4,0.1,0.5c0.1-0.2,0.1-0.4,0.1-0.5V44
		c0-0.2,0-0.4,0-0.5C35.7,43.4,35.7,43.2,35.6,43z"/>
	<path class="st2" d="M44.2,50.1c0,0,0.7-0.9,1.8-1.2"/>
	<path class="st2" d="M35.8,50.1c-0.1,0.9,0.8,2.3,0.8,2.3"/>
	<path class="st2" d="M22.4,50.1c0,0-0.7-0.9-1.8-1.2"/>
	<path class="st2" d="M20.6,48.2c0,0,0.9,0.7,2,0.7"/>
	<path class="st2" d="M20.3,46.9c0,0,0.5,1,1.6,1.4"/>
	<path class="st2" d="M45.9,48.2c0,0-0.9,0.7-2,0.7"/>
	<path class="st2" d="M46.2,46.9c0,0-0.5,1-1.6,1.4"/>
	<path class="st2" d="M31,50.1c0.1,0.9-0.8,2.3-0.8,2.3"/>
	<path class="st2" d="M38.1,62.3c0.8-1.4,2.2-1.4,2.5-3.6"/>
	<path class="st2" d="M29.5,62.8c-0.8-1.4-2.2-1.4-2.5-3.6"/>
	<path class="st2" d="M32.6,64.8c0.5,0.2,1.3,0.1,1.7,0"/>
	<path class="st2" d="M24.8,64.1c1.5,0.5,3.6,2.1,3.6,2.1"/>
	<path class="st2" d="M41.9,64.4c-1.5,0.5-3.6,2.1-3.6,2.1"/>
	<path class="st2" d="M30.5,42.2c0,0.5,0.1,1.9,0.1,1.9"/>
	<path class="st2" d="M36.4,43.5c-0.1,0.2-0.2,1-0.2,1"/>
	<path class="st2" d="M38.3,65.7c0.3-0.3,1.2-1,1.6-1.3"/>
	<path class="st2" d="M28.8,65.7c-0.3-0.3-1.2-1-1.6-1.3"/>
	<path class="st2" d="M25.6,39.3c2.4-0.6,6.7-1.5,10.3-1c3.7,0.5,0,0.3,0,0.3S29.2,38.5,25.6,39.3z"/>
	<path class="st2" d="M27.6,37.8c2.4-0.6,6.7-1.5,10.3-1c3.7,0.5,0,0.3,0,0.3S31.3,37,27.6,37.8z"/>
	<path class="st2" d="M32,46.8c-0.1-0.6-0.1-0.9,0.1-1.1c0.2-0.1,1,0,1.3,0l0,0c0,0,0,0,0.1,0h0.1l0,0c0.3,0,1.1-0.1,1.3,0
		c0.2,0.2,0.2,0.5,0.1,1.1c0,0,0.6-1.8,1.4-2.2c-0.4,0.2-0.5,0.3-0.8,0.3c-0.5-0.1-0.7-0.2-1.2,0c-0.4,0.2-0.8,0.2-0.9,0.2
		c-0.1,0-0.5,0-0.9-0.2c-0.5-0.2-0.7-0.1-1.2,0c-0.3,0.1-0.4,0-0.8-0.3C31.2,45.3,32,46.8,32,46.8z"/>
	<path class="st2" d="M42,56.2c-4.1,0-7.4-3.4-7.4-7.6c0-3.8,2.9-6.3,7.4-6.3s7.4,2.5,7.4,6.3C49.4,52.8,46.1,56.2,42,56.2z M42,43
		c-4.1,0-6.8,2.2-6.8,5.6c0,3.8,3,6.9,6.8,6.9s6.8-3.1,6.8-6.9C48.7,45.2,46.1,43,42,43z"/>
	<path class="st2" d="M24.9,56.2c-4.1,0-7.4-3.4-7.4-7.6c0-3.8,2.9-6.3,7.4-6.3s7.4,2.5,7.4,6.3C32.3,52.8,29,56.2,24.9,56.2z
		 M24.9,43c-4.1,0-6.8,2.2-6.8,5.6c0,3.8,3,6.9,6.8,6.9s6.8-3.1,6.8-6.9C31.6,45.2,29,43,24.9,43z"/>
</g>
</svg>
