<?xml version="1.0" encoding="utf-8"?>
<!-- Generator: Adobe Illustrator 21.1.0, SVG Export Plug-In . SVG Version: 6.00 Build 0)  -->
<svg version="1.1" id="Laag_1" xmlns="http://www.w3.org/2000/svg" xmlns:xlink="http://www.w3.org/1999/xlink" x="0px" y="0px"
	 viewBox="0 0 106.7 119.1" style="enable-background:new 0 0 106.7 119.1;" xml:space="preserve">
<style type="text/css">
	.st3{fill:#BFBDBD;}
</style>
<g>
	<path class="st3" d="M63.3,31.8l0.9-1H49.5c0.2,0.3,0.3,0.7,0.5,1H63.3z"/>
	<path class="st3" d="M95.1,30.8H82l-0.6,1H95c1.3,0,1.4,1.2,1.4,1.4v78.5c0,1.3-1.2,1.4-1.4,1.4H11.6c-1.3,0-1.4-1.2-1.4-1.4V33.2
		c0-1.3,1.2-1.4,1.4-1.4h17.7c0-0.3,0.1-0.7,0.3-1h-18c-0.8,0-2.4,0.5-2.4,2.4v78.5c0,0.8,0.5,2.4,2.4,2.4h83.5
		c0.8,0,2.4-0.5,2.4-2.4V33.2C97.5,32.4,97,30.8,95.1,30.8z"/>
</g>
<path class="st3" d="M58.7,53.7h11.1L54.9,87.2c-0.1,0.1,0,0.3,0.1,0.4c0.2,0.1,0.4,0.1,0.5-0.1l36.2-45.8c0.1-0.1,0.1-0.2,0-0.3
	s-0.2-0.2-0.3-0.2l0,0l-18.7,0.5L90.8,8.9c0.1-0.1,0-0.3-0.1-0.4c-0.2-0.1-0.4-0.1-0.5,0L55,46l-1.1-1.7c-0.9-1.4-1.9-2.8-2.7-4.1
	c-3.5-5.1-6.5-9.5-6.3-14.4C45.2,17.5,47,11,47.7,8.6c0-0.1,0-0.2-0.1-0.3c-0.1-0.1-0.2-0.1-0.3,0c-2.1,2.1-9.1,9.4-9.5,15.8
	c-0.2,2.9,0,6,0.4,9.3l0.6,4.5l-3.3-3.2c-1-0.9-1.8-1.6-2.6-2.1c-0.1-0.1-0.2-0.1-0.3,0c-0.1,0.1-0.1,0.2-0.1,0.3
	c0.7,2,2.1,6.9-1.2,10.2c-0.6,0.6-1.2,1.2-1.9,1.8c-4.1,3.9-9.3,8.7-8.8,16.4c0.3,6.3,2.9,12.1,6.9,15.7c3.3,3,7.5,4.3,12.4,4
	c0.1,0,0.2-0.1,0.3-0.2s0-0.2-0.2-0.3c-2.9-1.3-6.5-4.1-7.7-8c-0.9-2.9-0.3-5.9,1.7-9c3.2-4.9,4.8-8.1,5.2-10.9l1.3-7.5l1.9,7.3
	c0.5,2,0.6,4.1,0.4,6.1c0,0.1,0,0.2,0.2,0.3c0.1,0,0.2,0,0.2,0l1.9-0.9l0.4,2.1c0.2,1.3,0.9,2.3,2,3c1.8,1.2,3.8,4.3,4,7.7
	c0.2,3.2-1.2,6-3.9,8.3c-0.1,0.1-0.1,0.2-0.1,0.3c0.1,0.1,0.2,0.2,0.3,0.1c3.8-1.4,12.5-6.1,12-18.6c-0.1-1.7-0.3-3.4-0.7-5.1
	L58.7,53.7z"/>
</svg>
