<?xml version="1.0" encoding="utf-8"?>
<!-- Generator: Adobe Illustrator 21.1.0, SVG Export Plug-In . SVG Version: 6.00 Build 0)  -->
<svg version="1.1" id="Laag_1" xmlns="http://www.w3.org/2000/svg" xmlns:xlink="http://www.w3.org/1999/xlink" x="0px" y="0px"
	 viewBox="0 0 106.7 119.1" style="enable-background:new 0 0 106.7 119.1;" xml:space="preserve">
<style type="text/css">
	.st3{fill:#1c9cd9;}
	.st4{fill:#1c9cd9;}
</style>
<g>
	<path class="st3" d="M95.1,30.3H82.3l-1.1,2h13.9c0.8,0,0.9,0.5,0.9,0.9v78.5c0,0.8-0.5,0.9-0.9,0.9H11.6c-0.8,0-0.9-0.5-0.9-0.9
		V33.2c0-0.8,0.5-0.9,0.9-0.9h17.7c0-0.7,0.2-1.4,0.6-2H11.6c-1.2,0-2.9,0.8-2.9,2.9v78.5c0,1.2,0.8,2.9,2.9,2.9h83.5
		c1.2,0,2.9-0.8,2.9-2.9V33.2C98.1,32.1,97.3,30.3,95.1,30.3z"/>
	<path class="st3" d="M62.9,32.3l1.9-2H49.2c0.3,0.7,0.7,1.3,1.1,2H62.9z"/>
</g>
<path class="st4" d="M58.5,53.6h11.1L54.7,87.1c-0.1,0.1,0,0.3,0.1,0.4c0.2,0.1,0.4,0.1,0.5-0.1l36.2-45.8c0.1-0.1,0.1-0.2,0-0.3
	s-0.2-0.2-0.3-0.2l0,0l-18.7,0.5L90.6,8.8c0.1-0.1,0-0.3-0.1-0.4c-0.2-0.1-0.4-0.1-0.5,0L54.8,45.9l-1.1-1.7
	c-0.9-1.4-1.9-2.8-2.7-4.1c-3.5-5.1-6.5-9.5-6.3-14.4c0.3-8.3,2.1-14.8,2.8-17.2c0-0.1,0-0.2-0.1-0.3c-0.1-0.1-0.2-0.1-0.3,0
	C45,10.3,38,17.6,37.6,24c-0.2,2.9,0,6,0.4,9.3l0.6,4.5l-3.3-3.2c-1-0.9-1.8-1.6-2.6-2.1c-0.1-0.1-0.2-0.1-0.3,0
	c-0.1,0.1-0.1,0.2-0.1,0.3c0.7,2,2.1,6.9-1.2,10.2c-0.6,0.6-1.2,1.2-1.9,1.8c-4.1,3.9-9.3,8.7-8.8,16.4c0.3,6.3,2.9,12.1,6.9,15.7
	c3.3,3,7.5,4.3,12.4,4c0.1,0,0.2-0.1,0.3-0.2s0-0.2-0.2-0.3c-2.9-1.3-6.5-4.1-7.7-8c-0.9-2.9-0.3-5.9,1.7-9
	c3.2-4.9,4.8-8.1,5.2-10.9l1.3-7.5l1.9,7.3c0.5,2,0.6,4.1,0.4,6.1c0,0.1,0,0.2,0.2,0.3c0.1,0,0.2,0,0.2,0l1.9-0.9l0.4,2.1
	c0.2,1.3,0.9,2.3,2,3c1.8,1.2,3.8,4.3,4,7.7c0.2,3.2-1.2,6-3.9,8.3c-0.1,0.1-0.1,0.2-0.1,0.3c0.1,0.1,0.2,0.2,0.3,0.1
	c3.8-1.4,12.5-6.1,12-18.6c-0.1-1.7-0.3-3.4-0.7-5.1L58.5,53.6z"/>
</svg>
