<?xml version="1.0" encoding="utf-8"?>
<!-- Generator: Adobe Illustrator 21.1.0, SVG Export Plug-In . SVG Version: 6.00 Build 0)  -->
<svg version="1.1" id="Laag_1" xmlns="http://www.w3.org/2000/svg" xmlns:xlink="http://www.w3.org/1999/xlink" x="0px" y="0px"
	 viewBox="0 0 106.7 119.1" style="enable-background:new 0 0 106.7 119.1;" xml:space="preserve">
<style type="text/css">
	.st3{fill:#BFBDBD;}
</style>
<path class="st3" d="M74.8,4.4L30.4,51.8c-0.1,0.1-0.1,0.2-0.1,0.3c0.1,0.1,0.2,0.2,0.3,0.2h22.6L37.5,87.8c-0.1,0.2,0,0.3,0.1,0.4
	c0.2,0.1,0.4,0.1,0.5-0.1l38.2-48.7c0.1-0.1,0.1-0.2,0-0.3s-0.2-0.2-0.4-0.2l-19.8,0.6L75.4,4.7c0.1-0.1,0-0.3-0.1-0.4
	C75.2,4.2,75,4.2,74.8,4.4L74.8,4.4z"/>
<g>
	<path class="st3" d="M95.1,31H64.7l-0.6,1h31c1.3,0,1.4,1.2,1.4,1.4v78.5c0,1.3-1.2,1.4-1.4,1.4H11.6c-1.3,0-1.4-1.2-1.4-1.4V33.4
		c0-1.3,1.2-1.4,1.4-1.4h32.7c0-0.3,0.8-0.7,0.9-1H11.6c-0.8,0-2.4,0.5-2.4,2.4v78.5c0,0.8,0.5,2.4,2.4,2.4h83.5
		c0.8,0,2.4-0.5,2.4-2.4V33.4C97.5,32.6,97,31,95.1,31z"/>
</g>
</svg>
