<?xml version="1.0" encoding="utf-8"?>
<!-- Generator: Adobe Illustrator 21.1.0, SVG Export Plug-In . SVG Version: 6.00 Build 0)  -->
<svg version="1.1" id="Laag_1" xmlns="http://www.w3.org/2000/svg" xmlns:xlink="http://www.w3.org/1999/xlink" x="0px" y="0px"
	 viewBox="0 0 106.7 119.1" style="enable-background:new 0 0 106.7 119.1;" xml:space="preserve">
<style type="text/css">
	.st3{fill:#BFBDBD;}
</style>
<g>
	<path class="st3" d="M96.2,29.9H63.8c0.2,0.3,0.4,0.7,0.6,1h31.9c1.4,0,1.4,1.2,1.4,1.4v78.6c0,1.4-1.2,1.4-1.4,1.4H10.6
		c-1.4,0-1.4-1.2-1.4-1.4V32.4c0-1.4,1.2-1.4,1.4-1.4h31.1c-0.1-0.3-0.1-0.7,0-1H10.6c-0.8,0-2.4,0.5-2.4,2.4V111
		c0,0.8,0.5,2.4,2.4,2.4h85.6c0.8,0,2.4-0.5,2.4-2.4V32.4C98.6,31.5,98.1,29.9,96.2,29.9z"/>
</g>
<path class="st3" d="M45.3,30.1c-0.1,0-0.1,0-0.2,0.1C45,30.3,45,30.4,45,30.5c0.8,2.2,2.3,7.6-1.4,11.2c-0.6,0.6-1.3,1.2-2,1.9
	c-4.6,4.3-10.3,9.7-9.8,18.1c0.4,6.9,3.2,13.4,7.6,17.3c3.7,3.3,8.3,4.7,13.7,4.4l0,0c0.1,0,0.3-0.1,0.3-0.2s0-0.3-0.2-0.3
	c-3.2-1.4-7.2-4.5-8.4-8.8c-0.9-3.2-0.3-6.5,1.9-9.9c3.8-5.8,5.5-9.5,5.8-12.7l0.9-7.6l2.3,7.4c0.8,2.5,1,5,0.7,7.5
	c0,0.1,0,0.3,0.2,0.3c0.1,0,0.2,0,0.3,0l2.1-1.4l0.4,2.5c0.2,1.5,1,2.6,2.3,3.5c2,1.4,4.2,4.7,4.4,8.5c0.2,3.5-1.3,6.6-4.3,9.2
	c-0.1,0.1-0.1,0.2-0.1,0.4c0.1,0.1,0.2,0.2,0.4,0.1c4.2-1.6,13.8-6.7,13.2-20.5c-0.4-9.3-5.3-16.5-9.7-22.8
	c-3.9-5.6-7.2-10.5-7-15.9c0.4-9,2.4-16.2,3.2-18.9c0-0.1,0-0.3-0.1-0.3c-0.1-0.1-0.3-0.1-0.4,0c-3,2.9-10,10.5-10.4,17.4
	c-0.2,3.3,0,6.9,0.5,10.7L52,36l-3.4-3.3c-1.2-1.2-2.3-2-3.1-2.6C45.5,30.1,45.4,30.1,45.3,30.1z"/>
</svg>
