<?xml version="1.0" encoding="utf-8"?>
<!-- Generator: Adobe Illustrator 22.1.0, SVG Export Plug-In . SVG Version: 6.00 Build 0)  -->
<svg version="1.1" id="Laag_1" xmlns="http://www.w3.org/2000/svg" xmlns:xlink="http://www.w3.org/1999/xlink" x="0px" y="0px"
	 viewBox="0 0 106.7 119.1" style="enable-background:new 0 0 106.7 119.1;" xml:space="preserve">
<style type="text/css">
	.st0{fill:#FFFFFF;}
	.st1{fill:#1C9CD9;}
	.st2{fill:#000100;}
</style>
<path class="st0" d="M95.3,113.7H10.4c-0.4,0-0.7-0.3-0.7-0.7V32c0-0.4,0.3-0.7,0.7-0.7h84.9c0.4,0,0.7,0.3,0.7,0.7v81
	C96,113.4,95.7,113.7,95.3,113.7z"/>
<rect x="14.8" y="30.7" class="st1" width="67" height="2"/>
<g>
	<g>
		<path class="st0" d="M68.1,48.5c0-0.4-0.3-0.8-0.6-1.1c-0.6-0.5-1.4-0.6-2.1-0.7c-0.2,0-0.4,0-0.6,0c-0.1,0-0.2,0-0.3,0.1
			c2-7.2,4.6-20.9-12.3-23.4H39.1c-19.7,3.7-13.5,23.4-13.5,23.4c-0.7,0-1.5,0.2-2.1,0.7c-0.3,0.3-0.6,0.7-0.6,1.1
			c0,0.4,0.1,0.8,0.3,1.1c0.3,0.6,0.6,1.3,0.8,1.9c0.2,0.7,0.4,1.4,0.4,2c0,0.1,0,0.2,0,0.2v0.1c0,0,0,0.1,0,0.2
			c0,0.2,0.1,0.4,0.2,0.6c0.2,0.4,0.4,0.7,0.7,0.9c0.3,0.3,0.6,0.5,1,0.6c0.1,0,0.3,0.1,0.5,0.1c0,0.2,0,0.4,0.1,0.6
			c0.3,1.5,0.8,3.8,1.7,5.1c0.5,0.6,1,1.2,1.7,1.7c1.4,1.1,5.3,2.8,6.8,3.2c1.4,0.3,3.2,1,4.3,1.5c0.4,0.6,0.9,1.2,1.5,1.7
			c0.4,0.3,0.8,0.6,1.3,0.9c0.5,0.2,1,0.4,1.5,0.4s1.1-0.1,1.6-0.3c0.5-0.2,0.9-0.5,1.3-0.9c0.5-0.4,0.9-0.9,1.2-1.4
			c1.8-0.8,7.3-3.3,9.8-4.3c0.4-0.1,1-0.5,1.4-0.7c0.7-0.5,1.2-1.1,1.7-1.7c0.9-1.3,1.4-3.6,1.6-5.1c0-0.2,0-0.4,0.1-0.6
			c0.2,0,0.4,0,0.5-0.1c0.4-0.1,0.7-0.4,1-0.6c0.3-0.3,0.5-0.6,0.7-0.9c0.1-0.2,0.2-0.4,0.2-0.6c0-0.1,0-0.1,0-0.2v-0.1
			c0-0.1,0-0.2,0-0.2c0.1-0.7,0.2-1.4,0.4-2c0.2-0.7,0.5-1.3,0.8-1.9C67.9,49.3,68.1,48.9,68.1,48.5z"/>
		<g>
			<path class="st0" d="M27.6,50L27.6,50c-0.1-0.3-0.2-0.6-0.3-0.9c-0.1-0.2-0.3-0.5-0.5-0.7c-0.1-0.1-0.3-0.2-0.4-0.3
				c-0.1,0-0.2-0.1-0.2-0.1c-0.1,0-0.1,0-0.2,0c-0.4,0-0.9,0-1.4,0.2c-0.1,0-0.3,0.2-0.3,0.3c-0.1,0.1,0,0.3,0,0.4
				c0,0.2,0.1,0.4,0.1,0.7c0.1,0.4,0.1,0.9,0.1,1.3c0,0.1,0,0.2,0,0.3v0.2c0,0.1,0,0.1,0.1,0.2c0.1,0.2,0.2,0.4,0.4,0.6
				c0.3,0.3,0.7,0.7,1.1,0.7c-0.4-0.2-0.6-0.6-0.8-0.9c-0.1-0.2-0.2-0.4-0.3-0.5c0-0.1-0.1-0.4-0.1-0.6c-0.1-0.4-0.3-0.8-0.4-1.3
				c-0.1-0.2-0.1-0.4-0.1-0.6c0-0.1,0-0.2,0.1-0.3c0.1,0,0.1,0,0.2,0c0.4,0.1,0.7,0.3,1.2,0.5H26c0,0,0,0,0.1,0l0.1,0.1l0.1,0.1
				c-0.1,0.1-0.2,0.2-0.3,0.2c-0.7,0.4-1,0.6-0.5,1c0.4,0.4,1.3,0.3,1.7,1c-0.1,0.2-0.1,0.4-0.1,0.6c-0.2,1.1-0.3,2.2-0.3,3.3
				c0,0-0.1,0-0.1-0.1c-0.2-0.1-0.5-0.3-0.7-0.5s-0.4-0.5-0.6-0.7c-0.1-0.1-0.1-0.2-0.2-0.4c0,0,0,0,0-0.1v-0.1
				c0-0.1-0.1-0.2-0.1-0.3c-0.2-0.7-0.6-1.3-0.8-2c-0.3-0.7-0.5-1.3-0.7-2c-0.1-0.3-0.2-0.6-0.1-0.9c0-0.3,0.2-0.5,0.4-0.7
				c0.5-0.4,1.1-0.5,1.8-0.5c1.3-0.2,2.1,1,2.4,2.2C27.8,49.7,27.7,49.8,27.6,50z M59.1,63.8c-1.6,0.6-8.6,4.1-10.1,5.2
				c0,0,7.3-3.4,10.4-4.6c0.4-0.1,1-0.5,1.4-0.7c0.7-0.5,1.2-1.1,1.7-1.7c0.9-1.3,1.4-3.6,1.6-5.1c0-0.2,0-0.4,0.1-0.6
				c0.2,0,0.4,0,0.5-0.1c0.4-0.1,0.7-0.4,1-0.6c0.3-0.3,0.5-0.6,0.7-0.9c0.1-0.2,0.2-0.4,0.2-0.6c0-0.1,0-0.1,0-0.2v-0.1
				c0-0.1,0-0.2,0-0.2c0.1-0.7,0.2-1.4,0.4-2c0.2-0.7,0.5-1.3,0.8-1.9c0.2-0.3,0.3-0.7,0.3-1.1c0-0.4-0.3-0.8-0.6-1.1
				c-0.6-0.5-1.4-0.6-2.1-0.7c-0.2,0-0.4,0-0.6,0c-0.1,0-0.2,0-0.3,0.1c2-7.2,4.6-21-12.4-23.5l9.3-4.5l-0.9-1.2l-8.3,4.5
				c0.1-0.4,0.2-0.7,0.2-1.1c0-2.9-3.1-5.2-6.9-5.2c-3.8,0-6.9,2.3-6.9,5.2c0,0.4,0.1,0.7,0.1,1l-9.4-4.4l-0.9,1.2L39,23.2
				c-19.8,3.7-13.6,23.4-13.6,23.4c-0.7,0-1.5,0.2-2.1,0.7c-0.3,0.3-0.6,0.7-0.6,1.1c0,0.4,0.1,0.8,0.3,1.1c0.3,0.6,0.6,1.3,0.8,1.9
				c0.2,0.7,0.4,1.4,0.4,2c0,0.1,0,0.2,0,0.2v0.1c0,0,0,0.1,0,0.2c0,0.2,0.1,0.4,0.2,0.6c0.2,0.4,0.4,0.7,0.7,0.9
				c0.3,0.3,0.6,0.5,1,0.6c0.1,0,0.3,0.1,0.5,0.1c0,0.2,0,0.4,0.1,0.6c0.3,1.5,0.8,3.8,1.7,5.1c0.5,0.6,1,1.2,1.7,1.7
				c1.4,1.1,5.3,2.8,6.8,3.2c1.4,0.3,3.4,1.1,4.4,1.6c0,0-1.8-1.4-4.3-2.1c-2.6-0.7-4.3-1.7-6.6-3.2c-0.6-0.4-1.1-1-1.5-1.6
				c-0.8-1.2-1.2-3.4-1.4-4.8c-0.2-1.5-0.1-2.9,0.2-4.4c0.2-0.7,0.4-1.4,0.7-2.1c0.1-0.3,0.3-0.7,0.5-1l0.1-0.2l0.1-0.1l0.1-0.2
				c0.1-0.2,0.2-0.4,0.2-0.5l0,0c0.3-0.7,0.3-0.6,0.4-2.5c0.1-0.7,0.1-1.5,0.1-2.2c0-1.5,0.9-2.5,0.9-4c0.1-0.1,4.7-2.1,6.7-5.8
				c2.3,4.5,15.1,7.1,23.3,5.4c0,1.5,0,2.9,0.1,4.4c0,0.7,0.1,1.5,0.1,2.2c0,0.8,0.2,2.2,0.5,2.7c0,0.1,0.1,0.2,0.1,0.3
				c0.1,0.1,0.1,0.2,0.2,0.3l0.1,0.2c0.2,0.3,0.4,0.6,0.5,1c0.3,0.7,0.5,1.4,0.7,2.1c0.3,1.4,0.4,2.9,0.2,4.4
				c-0.2,1.4-0.7,3.6-1.5,4.8c-0.4,0.6-0.9,1.1-1.5,1.5C60.1,63.3,59.4,63.7,59.1,63.8z M67.5,49.4c-0.2,0.7-0.4,1.3-0.7,2
				c-0.2,0.7-0.6,1.3-0.8,2c0,0.1-0.1,0.2-0.1,0.3v0.1v0.1c0,0.1-0.1,0.2-0.2,0.4c-0.2,0.2-0.4,0.5-0.6,0.7s-0.5,0.4-0.7,0.5
				c-0.1,0-0.1,0.1-0.2,0.1c0.1-1.1,0-2.3-0.3-3.4c0-0.2-0.1-0.3-0.1-0.5c0.4-0.7,1.3-0.7,1.7-1.1c0.5-0.4,0.1-0.6-0.5-1
				c-0.1-0.1-0.2-0.2-0.3-0.2l0.1-0.1l0.1-0.1c0,0,0,0,0.1,0h0.1c0.4-0.1,0.8-0.4,1.2-0.5c0.1,0,0.1,0,0.2,0s0.1,0.1,0.1,0.3
				s0,0.4-0.1,0.6c-0.1,0.4-0.3,0.8-0.4,1.3c0,0.1-0.1,0.4-0.1,0.5c-0.1,0.2-0.2,0.4-0.3,0.5c-0.2,0.3-0.5,0.7-0.8,0.9
				c0.5,0,0.8-0.4,1.1-0.7c0.1-0.2,0.3-0.4,0.4-0.6c0-0.1,0-0.1,0.1-0.2v-0.2c0-0.1,0-0.2,0-0.3c0-0.4,0-0.9,0.1-1.3
				c0-0.2,0.1-0.4,0.1-0.7c0-0.1,0-0.2,0-0.4c-0.1-0.1-0.2-0.3-0.3-0.3c-0.5-0.2-1-0.2-1.4-0.2c-0.1,0-0.1,0-0.2,0s-0.2,0-0.2,0.1
				c-0.2,0.1-0.3,0.2-0.4,0.3c-0.2,0.2-0.4,0.4-0.5,0.7c-0.2,0.3-0.3,0.7-0.4,1v-0.1c-0.1-0.1-0.1-0.3-0.2-0.4
				c0.3-1.2,1.1-2.5,2.4-2.3c0.7,0,1.3,0.2,1.8,0.5c0.2,0.2,0.4,0.4,0.4,0.7C67.7,48.8,67.6,49.1,67.5,49.4z"/>
			<g>
				<g>
					<g>
						<g>
							<path class="st0" d="M56.9,43.7c-0.3-0.3-0.8-0.6-1.2-0.7c-0.4-0.2-1.6-0.1-2.9,0.1c-0.2,0.1-0.5,0.1-0.7,0.2
								c-0.9,0.2-1.8,0.5-2.6,0.9c-0.3,0.2-0.6,0.4-1,0.5c0,0.3,0,0.4,0.1,0.5l0,0c-0.1-0.1-0.2-0.2-0.3-0.3c0,0.2,0.1,0.5,0.2,0.7
								c0.2,0.1,0.4,0.3,0.6,0.4c1.7-1,3.6-1.8,5.7-1.7c1.2,0.1,2.2,0.3,3,1c0,0,0.1,0,0.1-0.1C57.8,44.4,57.3,44.1,56.9,43.7z"/>
						</g>
					</g>
				</g>
				<g>
					<g>
						<g>
							<path class="st0" d="M33.7,43.7c0.3-0.3,0.8-0.6,1.2-0.7c0.4-0.2,1.6-0.1,2.9,0.1c0.2,0.1,0.5,0.1,0.7,0.2
								c0.9,0.2,1.8,0.5,2.6,0.9c0.3,0.2,0.6,0.4,1,0.5c0,0.3,0.1,0.4,0,0.5l0,0c0.1-0.1,0.2-0.2,0.3-0.3c0,0.2-0.1,0.5-0.2,0.7
								c-0.2,0.1-0.4,0.3-0.6,0.4c-1.7-1-3.6-1.8-5.7-1.7c-1.2,0.1-2.2,0.3-3,1c0,0-0.1,0-0.1-0.1C32.8,44.4,33.3,44.1,33.7,43.7z"
								/>
						</g>
					</g>
					<g>
						<g>
							<path class="st0" d="M32.8,44.9c0.6-0.5,4.6-1.6,5.9-1.2c1,0.4,2,0.9,2.9,1.4c0.2,0.1,0.4,0.1,0.6,0.1c0,0.1,0,0.1-0.1,0.2
								c-0.2,0.1-0.4,0.3-0.6,0.4c-1.7-1-3.6-1.8-5.7-1.7c-1.2,0.1-2.2,0.3-3,1C32.8,45,32.8,44.9,32.8,44.9L32.8,44.9z"/>
						</g>
					</g>
				</g>
			</g>
			<g>
				<path class="st0" d="M51.7,57.6c0.1,0.3,0.1,0.6-0.2,0.7c-0.2,0-0.3,0.1-0.5,0.1c-0.4,0.1-0.9,0.1-1.3,0.2
					c-0.9,0.1-1.9,0.1-2.9,0.1c-1.4,0-2.8-0.4-4.1-0.2c-0.1,0-0.2,0-0.4,0c-0.7,0.2-1.4,0.3-2.1,0.4c-0.3,0-0.5,0-0.7-0.1
					c-0.3,0-0.6-0.1-0.8-0.4c0.2,0.6,0.6,0.7,1.1,0.7c0.9,0.8,1.2,2.1,2.4,2.7c1.1,0.5,2.5,0.8,3.7,0.7c1.1,0,2.2-0.4,3-1.1
					c0.4-0.3,0.6-0.8,0.9-1.2c0.4-0.8,0.8-1.2,1.5-1.7l0,0c0.1,0,0.2-0.1,0.3-0.1s0.1,0,0.1-0.1l0,0l0,0c0.1,0,0.1-0.1,0.1-0.1
					C52,58.1,51.9,57.8,51.7,57.6z M49.5,60.2c-0.6,1.3-1.7,1.9-3.2,2.1c-1.2,0.1-2.6-0.2-3.8-0.6c-1.2-0.4-1.6-1.8-2.6-2.5
					c0.1,0,0.2,0,0.3,0c1.3-0.1,2.6-0.6,4-0.6l0,0c1.1,0.1,2.1,0.3,3.2,0.4c0.9,0,2.1,0.1,3.1-0.1C50,59.1,49.7,59.7,49.5,60.2z"/>
				<path class="st0" d="M49.5,60.2c-0.6,1.3-1.7,1.9-3.2,2.1c-1.2,0.1-2.6-0.2-3.8-0.6c-1.2-0.4-1.6-1.8-2.6-2.5c0.1,0,0.2,0,0.3,0
					c1.3-0.1,2.6-0.6,4-0.6l0,0c1.1,0.1,2.1,0.3,3.2,0.4c0.9,0,2.1,0.1,3.1-0.1C50,59.1,49.7,59.7,49.5,60.2z"/>
				<path class="st0" d="M49.2,59.6c0.2-0.2,0.4-0.5,0.5-0.7c-0.8,0.1-1.6,0-2.3,0c-1,0-2.1-0.3-3.2-0.4l0,0c-1,0-2,0.3-3,0.5
					c0.3,0.5,0.6,0.9,1.4,1.1c0.8,0.2,1.5,0.3,2.3,0.4c1,0.1,1.9,0,2.8-0.2C48.2,60.2,48.7,60,49.2,59.6z"/>
				<path class="st0" d="M45.9,61.3c-1.2-0.1-2.2,0.1-3.1,0.5c1.1,0.4,2.4,0.6,3.6,0.5c0.6,0,1.1-0.2,1.5-0.3
					C47.2,61.6,46.6,61.3,45.9,61.3z"/>
				<path class="st0" d="M43.2,63.8c1,0.9,2.8,0.9,3.8,0.1l0.1-0.1C45.7,64.1,44.4,64.2,43.2,63.8z"/>
			</g>
			<path class="st0" d="M48,69.8c-0.8,0.6-1.6,1-2.5,1c-0.2,0-0.4,0-0.6-0.1c-0.2-0.1-0.4-0.1-0.6-0.2c-0.4-0.2-0.8-0.4-1.2-0.7
				c-0.8-0.6-1.5-1.2-2.2-1.9c0.5,0.9,1.1,1.7,1.9,2.3c0.4,0.3,0.8,0.6,1.3,0.9c0.5,0.2,1,0.4,1.5,0.4s1.1-0.1,1.6-0.3
				c0.5-0.2,0.9-0.5,1.3-0.9c0.7-0.7,1.3-1.5,1.8-2.4C49.4,68.5,48.7,69.2,48,69.8z"/>
			<path class="st0" d="M44.7,54.2c0,0-1-1-1.5-0.6C42.8,54,43.8,54.4,44.7,54.2z"/>
			<path class="st0" d="M45.9,54.2c0.9,0.2,1.9-0.2,1.5-0.6C46.9,53.3,45.9,54.2,45.9,54.2z"/>
			<path class="st0" d="M47.5,54.4c0.3,0,0.5-0.1,0.7-0.4c0.2-0.3,0.2-0.6,0.1-0.8c-0.1-0.3-0.2-0.5-0.4-0.6
				c-0.1-0.2-0.3-0.3-0.4-0.5c-0.1,0.2,0,0.5,0.1,0.7s0.2,0.4,0.2,0.6c0,0.2,0.1,0.3,0,0.5C47.8,54,47.6,54.2,47.5,54.4z"/>
			<path class="st0" d="M42.7,52.6c-0.1,0.2-0.3,0.4-0.4,0.6c-0.1,0.2-0.1,0.6,0.1,0.8c0.2,0.2,0.4,0.4,0.7,0.4
				c-0.1-0.2-0.3-0.4-0.3-0.6c0-0.2,0-0.3,0-0.5c0.1-0.2,0.1-0.4,0.2-0.6c0.1-0.2,0.1-0.5,0.1-0.7C43,52.2,42.9,52.4,42.7,52.6z"/>
			<path class="st0" d="M43.7,55.7V56c0,0.1,0,0.2,0.1,0.3c0.1-0.1,0.1-0.2,0.1-0.3l0.1-0.3c0-0.1,0-0.2,0-0.3s0-0.2-0.1-0.3
				c-0.1,0.1-0.1,0.2-0.2,0.3C43.8,55.5,43.8,55.6,43.7,55.7z"/>
			<path class="st0" d="M46.3,55.2c-0.1,0.1-0.1,0.3-0.1,0.4c0,0.1,0,0.3,0,0.4l0.1,0.4c0,0.1,0.1,0.3,0.1,0.4
				c0.1-0.1,0.1-0.3,0.1-0.4V56c0-0.1,0-0.3-0.1-0.4C46.5,55.4,46.4,55.3,46.3,55.2z"/>
		</g>
		<circle class="st0" cx="61.6" cy="17.8" r="1.4"/>
		<circle class="st0" cx="28.1" cy="17.6" r="1.4"/>
		<path class="st0" d="M39.2,47.4c-0.7-0.1-1.4-0.2-2-0.1c-0.7,0.1-1.3,0.2-2,0.5c-0.6,0.2-1.1,0.5-1.6,0.9
			c-0.3-0.1-0.6-0.2-0.9-0.3c0.3,0.2,0.6,0.4,0.9,0.6c0.3,0.2,0.5,0.4,0.8,0.6c0.5,0.4,1,1,1.4,1.5c-0.2-0.7-0.6-1.3-1.2-1.8
			c-0.3-0.3-0.6-0.5-0.9-0.7c1.2-0.2,2.3-0.4,3.5-0.5C37.8,48,38.4,48,39,48s1.2,0.1,1.9,0.1"/>
		<path class="st0" d="M41.5,48.3c-0.5-0.4-1.2-0.7-1.8-0.9"/>
		<path class="st0" d="M41.3,47.8c-0.8-0.8-1.7-1.3-2.6-1.6"/>
		<path class="st0" d="M51.2,46.2c-1,0.3-1.9,0.8-2.6,1.6"/>
		<path class="st0" d="M38.4,49.4c-0.4,0-0.9,0.1-1.4,0c-0.9,0-1.8-0.1-2.8-0.2c0.4,0.1,0.9,0.2,1.4,0.3s0.9,0.1,1.4,0.2
			c0.5,0,0.9,0,1.4,0s1-0.1,1.3-0.5C39.3,49.2,38.9,49.3,38.4,49.4z"/>
		<path class="st0" d="M49.3,48.3c0.7,0,1.3-0.1,1.9-0.1c0.6,0,1.2,0,1.8,0.1c1.1,0.1,2.3,0.3,3.5,0.5c-0.3,0.2-0.6,0.4-0.9,0.7
			c-0.5,0.5-0.9,1.1-1.2,1.8c0.4-0.6,0.9-1.1,1.4-1.5c0.3-0.2,0.5-0.4,0.8-0.6c0.3-0.2,0.6-0.4,0.9-0.6c-0.3,0-0.6,0.1-0.9,0.3
			c-0.5-0.4-1-0.7-1.6-0.9s-1.3-0.4-2-0.5s-1.4,0-2,0.1"/>
		<path class="st0" d="M50.4,47.4c-0.7,0.1-1.3,0.4-1.8,0.9"/>
		<path class="st0" d="M51.9,49.4c0.4,0,0.9,0.1,1.4,0c0.9,0,1.8-0.1,2.8-0.2c-0.4,0.1-0.9,0.2-1.4,0.3s-0.9,0.1-1.4,0.2
			c-0.5,0-0.9,0-1.4,0s-1-0.1-1.3-0.5C51,49.2,51.4,49.3,51.9,49.4z"/>
		<path class="st0" d="M42.9,41.2c0,0.3,0,0.7-0.1,1v1c0,0.3,0,0.7,0.1,1c0.1-0.3,0.1-0.7,0.1-1l0.1-1c0-0.3,0-0.7,0-1s0-0.7-0.1-1
			C42.9,40.6,42.9,40.9,42.9,41.2z"/>
		<path class="st0" d="M47.6,41.9c-0.1,0.2-0.1,0.4-0.1,0.6c0,0.2,0,0.4,0,0.6v0.6c0,0.2,0,0.4,0.1,0.6c0.1-0.2,0.1-0.4,0.1-0.6
			v-0.6c0-0.2,0-0.4,0-0.6C47.7,42.3,47.7,42.1,47.6,41.9z"/>
		<path class="st0" d="M56.9,49.5c0,0,0.7-1,1.9-1.3"/>
		<path class="st0" d="M47.9,49.5c-0.1,1,0.8,2.5,0.8,2.5"/>
		<path class="st0" d="M33.6,49.5c0,0-0.7-1-1.9-1.3"/>
		<path class="st0" d="M31.6,47.5c0,0,1,0.8,2.2,0.7"/>
		<path class="st0" d="M31.3,46.1c0,0,0.6,1.1,1.7,1.5"/>
		<path class="st0" d="M58.7,47.5c0,0-1,0.8-2.2,0.7"/>
		<path class="st0" d="M58.9,46.1c0,0-0.6,1.1-1.7,1.5"/>
		<path class="st0" d="M42.7,49.5c0.1,1-0.8,2.5-0.8,2.5"/>
		<path class="st0" d="M50.4,62.6c0.8-1.5,2.4-1.5,2.7-3.8"/>
		<path class="st0" d="M41.1,63.1c-0.8-1.5-2.4-1.5-2.7-3.8"/>
		<path class="st0" d="M44.4,65.2c0.6,0.2,1.4,0.1,1.8,0"/>
		<path class="st0" d="M36.1,64.5c1.6,0.5,3.8,2.2,3.8,2.2"/>
		<path class="st0" d="M54.4,64.8c-1.6,0.5-3.8,2.2-3.8,2.2"/>
		<path class="st0" d="M42.1,41.1c0,0.5,0.1,2,0.1,2"/>
		<path class="st0" d="M48.4,42.5c-0.1,0.3-0.2,1.1-0.2,1.1"/>
		<path class="st0" d="M50.5,66.2c0.3-0.3,1.2-1.1,1.7-1.4"/>
		<path class="st0" d="M40.4,66.2c-0.3-0.3-1.2-1.1-1.7-1.4"/>
		<path class="st0" d="M36.9,38c2.5-0.6,7.1-1.6,11-1.1s0,0.3,0,0.3S40.8,37.1,36.9,38z"/>
		<path class="st0" d="M39.1,36.4c2.5-0.6,7.1-1.6,11-1.1s0,0.3,0,0.3S43,35.5,39.1,36.4z"/>
		<path class="st0" d="M43.8,46c-0.1-0.7-0.1-1,0.1-1.2c0.2-0.1,1.1-0.1,1.4,0l0,0c0,0,0,0,0.1,0h0.1l0,0c0.3,0,1.2-0.1,1.4,0
			c0.1,0.2,0.1,0.6,0,1.2c0,0,0.7-1.9,1.5-2.4c-0.4,0.2-0.5,0.3-0.9,0.3c-0.5-0.1-0.7-0.2-1.3,0c-0.5,0.2-0.8,0.2-1,0.2
			c-0.1,0-0.5,0-1-0.2c-0.6-0.2-0.7-0.1-1.3,0c-0.3,0.1-0.4,0-0.9-0.3C43,44.4,43.8,46,43.8,46z"/>
		<path class="st0" d="M54.4,56c-4.4,0-7.9-3.6-7.9-8.1c0-4.1,3.1-6.7,7.9-6.7s7.9,2.6,7.9,6.7C62.4,52.4,58.8,56,54.4,56z
			 M54.4,41.9c-4.4,0-7.2,2.3-7.2,6c0,4.1,3.2,7.4,7.2,7.4s7.2-3.3,7.2-7.4C61.7,44.3,58.8,41.9,54.4,41.9z"/>
		<path class="st0" d="M36.2,56c-4.4,0-7.9-3.6-7.9-8.1c0-4.1,3.1-6.7,7.9-6.7s7.9,2.6,7.9,6.7C44.1,52.4,40.6,56,36.2,56z
			 M36.2,41.9c-4.4,0-7.2,2.3-7.2,6c0,4.1,3.2,7.4,7.2,7.4s7.2-3.3,7.2-7.4C43.4,44.3,40.6,41.9,36.2,41.9z"/>
	</g>
	<g>
		<path class="st0" d="M68.1,48.5c0-0.4-0.3-0.8-0.6-1.1c-0.6-0.5-1.4-0.6-2.1-0.7c-0.2,0-0.4,0-0.6,0c-0.1,0-0.2,0-0.3,0.1
			c2-7.2,4.6-20.9-12.3-23.4H39.1c-19.7,3.7-13.5,23.4-13.5,23.4c-0.7,0-1.5,0.2-2.1,0.7c-0.3,0.3-0.6,0.7-0.6,1.1
			c0,0.4,0.1,0.8,0.3,1.1c0.3,0.6,0.6,1.3,0.8,1.9c0.2,0.7,0.4,1.4,0.4,2c0,0.1,0,0.2,0,0.2v0.1c0,0,0,0.1,0,0.2
			c0,0.2,0.1,0.4,0.2,0.6c0.2,0.4,0.4,0.7,0.7,0.9c0.3,0.3,0.6,0.5,1,0.6c0.1,0,0.3,0.1,0.5,0.1c0,0.2,0,0.4,0.1,0.6
			c0.3,1.5,0.8,3.8,1.7,5.1c0.5,0.6,1,1.2,1.7,1.7c1.4,1.1,5.3,2.8,6.8,3.2c1.4,0.3,3.2,1,4.3,1.5c0.4,0.6,0.9,1.2,1.5,1.7
			c0.4,0.3,0.8,0.6,1.3,0.9c0.5,0.2,1,0.4,1.5,0.4s1.1-0.1,1.6-0.3c0.5-0.2,0.9-0.5,1.3-0.9c0.5-0.4,0.9-0.9,1.2-1.4
			c1.8-0.8,7.3-3.3,9.8-4.3c0.4-0.1,1-0.5,1.4-0.7c0.7-0.5,1.2-1.1,1.7-1.7c0.9-1.3,1.4-3.6,1.6-5.1c0-0.2,0-0.4,0.1-0.6
			c0.2,0,0.4,0,0.5-0.1c0.4-0.1,0.7-0.4,1-0.6c0.3-0.3,0.5-0.6,0.7-0.9c0.1-0.2,0.2-0.4,0.2-0.6c0-0.1,0-0.1,0-0.2v-0.1
			c0-0.1,0-0.2,0-0.2c0.1-0.7,0.2-1.4,0.4-2c0.2-0.7,0.5-1.3,0.8-1.9C67.9,49.3,68.1,48.9,68.1,48.5z"/>
		<g>
			<path class="st2" d="M27.6,50L27.6,50c-0.1-0.3-0.2-0.6-0.3-0.9c-0.1-0.2-0.3-0.5-0.5-0.7c-0.1-0.1-0.3-0.2-0.4-0.3
				c-0.1,0-0.2-0.1-0.2-0.1c-0.1,0-0.1,0-0.2,0c-0.4,0-0.9,0-1.4,0.2c-0.1,0-0.3,0.2-0.3,0.3c-0.1,0.1,0,0.3,0,0.4
				c0,0.2,0.1,0.4,0.1,0.7c0.1,0.4,0.1,0.9,0.1,1.3c0,0.1,0,0.2,0,0.3v0.2c0,0.1,0,0.1,0.1,0.2c0.1,0.2,0.2,0.4,0.4,0.6
				c0.3,0.3,0.7,0.7,1.1,0.7c-0.4-0.2-0.6-0.6-0.8-0.9c-0.1-0.2-0.2-0.4-0.3-0.5c0-0.1-0.1-0.4-0.1-0.6c-0.1-0.4-0.3-0.8-0.4-1.3
				c-0.1-0.2-0.1-0.4-0.1-0.6c0-0.1,0-0.2,0.1-0.3c0.1,0,0.1,0,0.2,0c0.4,0.1,0.7,0.3,1.2,0.5H26c0,0,0,0,0.1,0l0.1,0.1l0.1,0.1
				c-0.1,0.1-0.2,0.2-0.3,0.2c-0.7,0.4-1,0.6-0.5,1c0.4,0.4,1.3,0.3,1.7,1c-0.1,0.2-0.1,0.4-0.1,0.6c-0.2,1.1-0.3,2.2-0.3,3.3
				c0,0-0.1,0-0.1-0.1c-0.2-0.1-0.5-0.3-0.7-0.5s-0.4-0.5-0.6-0.7c-0.1-0.1-0.1-0.2-0.2-0.4c0,0,0,0,0-0.1v-0.1
				c0-0.1-0.1-0.2-0.1-0.3c-0.2-0.7-0.6-1.3-0.8-2c-0.3-0.7-0.5-1.3-0.7-2c-0.1-0.3-0.2-0.6-0.1-0.9c0-0.3,0.2-0.5,0.4-0.7
				c0.5-0.4,1.1-0.5,1.8-0.5c1.3-0.2,2.1,1,2.4,2.2C27.8,49.7,27.7,49.8,27.6,50z M59.1,63.8c-1.6,0.6-8.6,4.1-10.1,5.2
				c0,0,7.3-3.4,10.4-4.6c0.4-0.1,1-0.5,1.4-0.7c0.7-0.5,1.2-1.1,1.7-1.7c0.9-1.3,1.4-3.6,1.6-5.1c0-0.2,0-0.4,0.1-0.6
				c0.2,0,0.4,0,0.5-0.1c0.4-0.1,0.7-0.4,1-0.6c0.3-0.3,0.5-0.6,0.7-0.9c0.1-0.2,0.2-0.4,0.2-0.6c0-0.1,0-0.1,0-0.2v-0.1
				c0-0.1,0-0.2,0-0.2c0.1-0.7,0.2-1.4,0.4-2c0.2-0.7,0.5-1.3,0.8-1.9c0.2-0.3,0.3-0.7,0.3-1.1c0-0.4-0.3-0.8-0.6-1.1
				c-0.6-0.5-1.4-0.6-2.1-0.7c-0.2,0-0.4,0-0.6,0c-0.1,0-0.2,0-0.3,0.1c2-7.2,4.6-21-12.4-23.5l9.3-4.5l-0.9-1.2l-8.3,4.5
				c0.1-0.4,0.2-0.7,0.2-1.1c0-2.9-3.1-5.2-6.9-5.2c-3.8,0-6.9,2.3-6.9,5.2c0,0.4,0.1,0.7,0.1,1l-9.4-4.4l-0.9,1.2L39,23.2
				c-19.8,3.7-13.6,23.4-13.6,23.4c-0.7,0-1.5,0.2-2.1,0.7c-0.3,0.3-0.6,0.7-0.6,1.1c0,0.4,0.1,0.8,0.3,1.1c0.3,0.6,0.6,1.3,0.8,1.9
				c0.2,0.7,0.4,1.4,0.4,2c0,0.1,0,0.2,0,0.2v0.1c0,0,0,0.1,0,0.2c0,0.2,0.1,0.4,0.2,0.6c0.2,0.4,0.4,0.7,0.7,0.9
				c0.3,0.3,0.6,0.5,1,0.6c0.1,0,0.3,0.1,0.5,0.1c0,0.2,0,0.4,0.1,0.6c0.3,1.5,0.8,3.8,1.7,5.1c0.5,0.6,1,1.2,1.7,1.7
				c1.4,1.1,5.3,2.8,6.8,3.2c1.4,0.3,3.4,1.1,4.4,1.6c0,0-1.8-1.4-4.3-2.1c-2.6-0.7-4.3-1.7-6.6-3.2c-0.6-0.4-1.1-1-1.5-1.6
				c-0.8-1.2-1.2-3.4-1.4-4.8c-0.2-1.5-0.1-2.9,0.2-4.4c0.2-0.7,0.4-1.4,0.7-2.1c0.1-0.3,0.3-0.7,0.5-1l0.1-0.2l0.1-0.1l0.1-0.2
				c0.1-0.2,0.2-0.4,0.2-0.5l0,0c0.3-0.7,0.3-0.6,0.4-2.5c0.1-0.7,0.1-1.5,0.1-2.2c0-1.5,0.9-2.5,0.9-4c0.1-0.1,4.7-2.1,6.7-5.8
				c2.3,4.5,15.1,7.1,23.3,5.4c0,1.5,0,2.9,0.1,4.4c0,0.7,0.1,1.5,0.1,2.2c0,0.8,0.2,2.2,0.5,2.7c0,0.1,0.1,0.2,0.1,0.3
				c0.1,0.1,0.1,0.2,0.2,0.3l0.1,0.2c0.2,0.3,0.4,0.6,0.5,1c0.3,0.7,0.5,1.4,0.7,2.1c0.3,1.4,0.4,2.9,0.2,4.4
				c-0.2,1.4-0.7,3.6-1.5,4.8c-0.4,0.6-0.9,1.1-1.5,1.5C60.1,63.3,59.4,63.7,59.1,63.8z M67.5,49.4c-0.2,0.7-0.4,1.3-0.7,2
				c-0.2,0.7-0.6,1.3-0.8,2c0,0.1-0.1,0.2-0.1,0.3v0.1v0.1c0,0.1-0.1,0.2-0.2,0.4c-0.2,0.2-0.4,0.5-0.6,0.7s-0.5,0.4-0.7,0.5
				c-0.1,0-0.1,0.1-0.2,0.1c0.1-1.1,0-2.3-0.3-3.4c0-0.2-0.1-0.3-0.1-0.5c0.4-0.7,1.3-0.7,1.7-1.1c0.5-0.4,0.1-0.6-0.5-1
				c-0.1-0.1-0.2-0.2-0.3-0.2l0.1-0.1l0.1-0.1c0,0,0,0,0.1,0h0.1c0.4-0.1,0.8-0.4,1.2-0.5c0.1,0,0.1,0,0.2,0s0.1,0.1,0.1,0.3
				s0,0.4-0.1,0.6c-0.1,0.4-0.3,0.8-0.4,1.3c0,0.1-0.1,0.4-0.1,0.5c-0.1,0.2-0.2,0.4-0.3,0.5c-0.2,0.3-0.5,0.7-0.8,0.9
				c0.5,0,0.8-0.4,1.1-0.7c0.1-0.2,0.3-0.4,0.4-0.6c0-0.1,0-0.1,0.1-0.2v-0.2c0-0.1,0-0.2,0-0.3c0-0.4,0-0.9,0.1-1.3
				c0-0.2,0.1-0.4,0.1-0.7c0-0.1,0-0.2,0-0.4c-0.1-0.1-0.2-0.3-0.3-0.3c-0.5-0.2-1-0.2-1.4-0.2c-0.1,0-0.1,0-0.2,0s-0.2,0-0.2,0.1
				c-0.2,0.1-0.3,0.2-0.4,0.3c-0.2,0.2-0.4,0.4-0.5,0.7c-0.2,0.3-0.3,0.7-0.4,1v-0.1c-0.1-0.1-0.1-0.3-0.2-0.4
				c0.3-1.2,1.1-2.5,2.4-2.3c0.7,0,1.3,0.2,1.8,0.5c0.2,0.2,0.4,0.4,0.4,0.7C67.7,48.8,67.6,49.1,67.5,49.4z"/>
			<g>
				<g>
					<g>
						<g>
							<path d="M56.9,43.7c-0.3-0.3-0.8-0.6-1.2-0.7c-0.4-0.2-1.6-0.1-2.9,0.1c-0.2,0.1-0.5,0.1-0.7,0.2c-0.9,0.2-1.8,0.5-2.6,0.9
								c-0.3,0.2-0.6,0.4-1,0.5c0,0.3,0,0.4,0.1,0.5l0,0c-0.1-0.1-0.2-0.2-0.3-0.3c0,0.2,0.1,0.5,0.2,0.7c0.2,0.1,0.4,0.3,0.6,0.4
								c1.7-1,3.6-1.8,5.7-1.7c1.2,0.1,2.2,0.3,3,1c0,0,0.1,0,0.1-0.1C57.8,44.4,57.3,44.1,56.9,43.7z"/>
						</g>
					</g>
				</g>
				<g>
					<g>
						<g>
							<path d="M33.7,43.7c0.3-0.3,0.8-0.6,1.2-0.7c0.4-0.2,1.6-0.1,2.9,0.1c0.2,0.1,0.5,0.1,0.7,0.2c0.9,0.2,1.8,0.5,2.6,0.9
								c0.3,0.2,0.6,0.4,1,0.5c0,0.3,0.1,0.4,0,0.5l0,0c0.1-0.1,0.2-0.2,0.3-0.3c0,0.2-0.1,0.5-0.2,0.7c-0.2,0.1-0.4,0.3-0.6,0.4
								c-1.7-1-3.6-1.8-5.7-1.7c-1.2,0.1-2.2,0.3-3,1c0,0-0.1,0-0.1-0.1C32.8,44.4,33.3,44.1,33.7,43.7z"/>
						</g>
					</g>
					<g>
						<g>
							<path d="M32.8,44.9c0.6-0.5,4.6-1.6,5.9-1.2c1,0.4,2,0.9,2.9,1.4c0.2,0.1,0.4,0.1,0.6,0.1c0,0.1,0,0.1-0.1,0.2
								c-0.2,0.1-0.4,0.3-0.6,0.4c-1.7-1-3.6-1.8-5.7-1.7c-1.2,0.1-2.2,0.3-3,1C32.8,45,32.8,44.9,32.8,44.9L32.8,44.9z"/>
						</g>
					</g>
				</g>
			</g>
			<g>
				<path d="M51.7,57.6c0.1,0.3,0.1,0.6-0.2,0.7c-0.2,0-0.3,0.1-0.5,0.1c-0.4,0.1-0.9,0.1-1.3,0.2c-0.9,0.1-1.9,0.1-2.9,0.1
					c-1.4,0-2.8-0.4-4.1-0.2c-0.1,0-0.2,0-0.4,0c-0.7,0.2-1.4,0.3-2.1,0.4c-0.3,0-0.5,0-0.7-0.1c-0.3,0-0.6-0.1-0.8-0.4
					c0.2,0.6,0.6,0.7,1.1,0.7c0.9,0.8,1.2,2.1,2.4,2.7c1.1,0.5,2.5,0.8,3.7,0.7c1.1,0,2.2-0.4,3-1.1c0.4-0.3,0.6-0.8,0.9-1.2
					c0.4-0.8,0.8-1.2,1.5-1.7l0,0c0.1,0,0.2-0.1,0.3-0.1s0.1,0,0.1-0.1l0,0l0,0c0.1,0,0.1-0.1,0.1-0.1C52,58.1,51.9,57.8,51.7,57.6z
					 M49.5,60.2c-0.6,1.3-1.7,1.9-3.2,2.1c-1.2,0.1-2.6-0.2-3.8-0.6c-1.2-0.4-1.6-1.8-2.6-2.5c0.1,0,0.2,0,0.3,0
					c1.3-0.1,2.6-0.6,4-0.6l0,0c1.1,0.1,2.1,0.3,3.2,0.4c0.9,0,2.1,0.1,3.1-0.1C50,59.1,49.7,59.7,49.5,60.2z"/>
				<path d="M49.5,60.2c-0.6,1.3-1.7,1.9-3.2,2.1c-1.2,0.1-2.6-0.2-3.8-0.6c-1.2-0.4-1.6-1.8-2.6-2.5c0.1,0,0.2,0,0.3,0
					c1.3-0.1,2.6-0.6,4-0.6l0,0c1.1,0.1,2.1,0.3,3.2,0.4c0.9,0,2.1,0.1,3.1-0.1C50,59.1,49.7,59.7,49.5,60.2z"/>
				<path class="st0" d="M49.2,59.6c0.2-0.2,0.4-0.5,0.5-0.7c-0.8,0.1-1.6,0-2.3,0c-1,0-2.1-0.3-3.2-0.4l0,0c-1,0-2,0.3-3,0.5
					c0.3,0.5,0.6,0.9,1.4,1.1c0.8,0.2,1.5,0.3,2.3,0.4c1,0.1,1.9,0,2.8-0.2C48.2,60.2,48.7,60,49.2,59.6z"/>
				<path class="st0" d="M45.9,61.3c-1.2-0.1-2.2,0.1-3.1,0.5c1.1,0.4,2.4,0.6,3.6,0.5c0.6,0,1.1-0.2,1.5-0.3
					C47.2,61.6,46.6,61.3,45.9,61.3z"/>
				<path d="M43.2,63.8c1,0.9,2.8,0.9,3.8,0.1l0.1-0.1C45.7,64.1,44.4,64.2,43.2,63.8z"/>
			</g>
			<path class="st2" d="M48,69.8c-0.8,0.6-1.6,1-2.5,1c-0.2,0-0.4,0-0.6-0.1c-0.2-0.1-0.4-0.1-0.6-0.2c-0.4-0.2-0.8-0.4-1.2-0.7
				c-0.8-0.6-1.5-1.2-2.2-1.9c0.5,0.9,1.1,1.7,1.9,2.3c0.4,0.3,0.8,0.6,1.3,0.9c0.5,0.2,1,0.4,1.5,0.4s1.1-0.1,1.6-0.3
				c0.5-0.2,0.9-0.5,1.3-0.9c0.7-0.7,1.3-1.5,1.8-2.4C49.4,68.5,48.7,69.2,48,69.8z"/>
			<path class="st2" d="M44.7,54.2c0,0-1-1-1.5-0.6C42.8,54,43.8,54.4,44.7,54.2z"/>
			<path class="st2" d="M45.9,54.2c0.9,0.2,1.9-0.2,1.5-0.6C46.9,53.3,45.9,54.2,45.9,54.2z"/>
			<path class="st2" d="M47.5,54.4c0.3,0,0.5-0.1,0.7-0.4c0.2-0.3,0.2-0.6,0.1-0.8c-0.1-0.3-0.2-0.5-0.4-0.6
				c-0.1-0.2-0.3-0.3-0.4-0.5c-0.1,0.2,0,0.5,0.1,0.7s0.2,0.4,0.2,0.6c0,0.2,0.1,0.3,0,0.5C47.8,54,47.6,54.2,47.5,54.4z"/>
			<path class="st2" d="M42.7,52.6c-0.1,0.2-0.3,0.4-0.4,0.6c-0.1,0.2-0.1,0.6,0.1,0.8c0.2,0.2,0.4,0.4,0.7,0.4
				c-0.1-0.2-0.3-0.4-0.3-0.6c0-0.2,0-0.3,0-0.5c0.1-0.2,0.1-0.4,0.2-0.6c0.1-0.2,0.1-0.5,0.1-0.7C43,52.2,42.9,52.4,42.7,52.6z"/>
			<path class="st2" d="M43.7,55.7V56c0,0.1,0,0.2,0.1,0.3c0.1-0.1,0.1-0.2,0.1-0.3l0.1-0.3c0-0.1,0-0.2,0-0.3s0-0.2-0.1-0.3
				c-0.1,0.1-0.1,0.2-0.2,0.3C43.8,55.5,43.8,55.6,43.7,55.7z"/>
			<path class="st2" d="M46.3,55.2c-0.1,0.1-0.1,0.3-0.1,0.4c0,0.1,0,0.3,0,0.4l0.1,0.4c0,0.1,0.1,0.3,0.1,0.4
				c0.1-0.1,0.1-0.3,0.1-0.4V56c0-0.1,0-0.3-0.1-0.4C46.5,55.4,46.4,55.3,46.3,55.2z"/>
		</g>
		<circle class="st2" cx="61.6" cy="17.8" r="1.4"/>
		<circle class="st2" cx="28.1" cy="17.6" r="1.4"/>
		<path class="st2" d="M39.2,47.4c-0.7-0.1-1.4-0.2-2-0.1c-0.7,0.1-1.3,0.2-2,0.5c-0.6,0.2-1.1,0.5-1.6,0.9
			c-0.3-0.1-0.6-0.2-0.9-0.3c0.3,0.2,0.6,0.4,0.9,0.6c0.3,0.2,0.5,0.4,0.8,0.6c0.5,0.4,1,1,1.4,1.5c-0.2-0.7-0.6-1.3-1.2-1.8
			c-0.3-0.3-0.6-0.5-0.9-0.7c1.2-0.2,2.3-0.4,3.5-0.5C37.8,48,38.4,48,39,48s1.2,0.1,1.9,0.1"/>
		<path class="st2" d="M41.5,48.3c-0.5-0.4-1.2-0.7-1.8-0.9"/>
		<path class="st2" d="M41.3,47.8c-0.8-0.8-1.7-1.3-2.6-1.6"/>
		<path class="st2" d="M51.2,46.2c-1,0.3-1.9,0.8-2.6,1.6"/>
		<path class="st2" d="M38.4,49.4c-0.4,0-0.9,0.1-1.4,0c-0.9,0-1.8-0.1-2.8-0.2c0.4,0.1,0.9,0.2,1.4,0.3s0.9,0.1,1.4,0.2
			c0.5,0,0.9,0,1.4,0s1-0.1,1.3-0.5C39.3,49.2,38.9,49.3,38.4,49.4z"/>
		<path class="st2" d="M49.3,48.3c0.7,0,1.3-0.1,1.9-0.1c0.6,0,1.2,0,1.8,0.1c1.1,0.1,2.3,0.3,3.5,0.5c-0.3,0.2-0.6,0.4-0.9,0.7
			c-0.5,0.5-0.9,1.1-1.2,1.8c0.4-0.6,0.9-1.1,1.4-1.5c0.3-0.2,0.5-0.4,0.8-0.6c0.3-0.2,0.6-0.4,0.9-0.6c-0.3,0-0.6,0.1-0.9,0.3
			c-0.5-0.4-1-0.7-1.6-0.9s-1.3-0.4-2-0.5s-1.4,0-2,0.1"/>
		<path class="st2" d="M50.4,47.4c-0.7,0.1-1.3,0.4-1.8,0.9"/>
		<path class="st2" d="M51.9,49.4c0.4,0,0.9,0.1,1.4,0c0.9,0,1.8-0.1,2.8-0.2c-0.4,0.1-0.9,0.2-1.4,0.3s-0.9,0.1-1.4,0.2
			c-0.5,0-0.9,0-1.4,0s-1-0.1-1.3-0.5C51,49.2,51.4,49.3,51.9,49.4z"/>
		<path class="st2" d="M42.9,41.2c0,0.3,0,0.7-0.1,1v1c0,0.3,0,0.7,0.1,1c0.1-0.3,0.1-0.7,0.1-1l0.1-1c0-0.3,0-0.7,0-1s0-0.7-0.1-1
			C42.9,40.6,42.9,40.9,42.9,41.2z"/>
		<path class="st2" d="M47.6,41.9c-0.1,0.2-0.1,0.4-0.1,0.6c0,0.2,0,0.4,0,0.6v0.6c0,0.2,0,0.4,0.1,0.6c0.1-0.2,0.1-0.4,0.1-0.6
			v-0.6c0-0.2,0-0.4,0-0.6C47.7,42.3,47.7,42.1,47.6,41.9z"/>
		<path class="st2" d="M56.9,49.5c0,0,0.7-1,1.9-1.3"/>
		<path class="st2" d="M47.9,49.5c-0.1,1,0.8,2.5,0.8,2.5"/>
		<path class="st2" d="M33.6,49.5c0,0-0.7-1-1.9-1.3"/>
		<path class="st2" d="M31.6,47.5c0,0,1,0.8,2.2,0.7"/>
		<path class="st2" d="M31.3,46.1c0,0,0.6,1.1,1.7,1.5"/>
		<path class="st2" d="M58.7,47.5c0,0-1,0.8-2.2,0.7"/>
		<path class="st2" d="M58.9,46.1c0,0-0.6,1.1-1.7,1.5"/>
		<path class="st2" d="M42.7,49.5c0.1,1-0.8,2.5-0.8,2.5"/>
		<path class="st2" d="M50.4,62.6c0.8-1.5,2.4-1.5,2.7-3.8"/>
		<path class="st2" d="M41.1,63.1c-0.8-1.5-2.4-1.5-2.7-3.8"/>
		<path class="st2" d="M44.4,65.2c0.6,0.2,1.4,0.1,1.8,0"/>
		<path class="st2" d="M36.1,64.5c1.6,0.5,3.8,2.2,3.8,2.2"/>
		<path class="st2" d="M54.4,64.8c-1.6,0.5-3.8,2.2-3.8,2.2"/>
		<path class="st2" d="M42.1,41.1c0,0.5,0.1,2,0.1,2"/>
		<path class="st2" d="M48.4,42.5c-0.1,0.3-0.2,1.1-0.2,1.1"/>
		<path class="st2" d="M50.5,66.2c0.3-0.3,1.2-1.1,1.7-1.4"/>
		<path class="st2" d="M40.4,66.2c-0.3-0.3-1.2-1.1-1.7-1.4"/>
		<path class="st2" d="M36.9,38c2.5-0.6,7.1-1.6,11-1.1s0,0.3,0,0.3S40.8,37.1,36.9,38z"/>
		<path class="st2" d="M39.1,36.4c2.5-0.6,7.1-1.6,11-1.1s0,0.3,0,0.3S43,35.5,39.1,36.4z"/>
		<path class="st2" d="M43.8,46c-0.1-0.7-0.1-1,0.1-1.2c0.2-0.1,1.1-0.1,1.4,0l0,0c0,0,0,0,0.1,0h0.1l0,0c0.3,0,1.2-0.1,1.4,0
			c0.1,0.2,0.1,0.6,0,1.2c0,0,0.7-1.9,1.5-2.4c-0.4,0.2-0.5,0.3-0.9,0.3c-0.5-0.1-0.7-0.2-1.3,0c-0.5,0.2-0.8,0.2-1,0.2
			c-0.1,0-0.5,0-1-0.2c-0.6-0.2-0.7-0.1-1.3,0c-0.3,0.1-0.4,0-0.9-0.3C43,44.4,43.8,46,43.8,46z"/>
		<path class="st2" d="M54.4,56c-4.4,0-7.9-3.6-7.9-8.1c0-4.1,3.1-6.7,7.9-6.7s7.9,2.6,7.9,6.7C62.4,52.4,58.8,56,54.4,56z
			 M54.4,41.9c-4.4,0-7.2,2.3-7.2,6c0,4.1,3.2,7.4,7.2,7.4s7.2-3.3,7.2-7.4C61.7,44.3,58.8,41.9,54.4,41.9z"/>
		<path class="st2" d="M36.2,56c-4.4,0-7.9-3.6-7.9-8.1c0-4.1,3.1-6.7,7.9-6.7s7.9,2.6,7.9,6.7C44.1,52.4,40.6,56,36.2,56z
			 M36.2,41.9c-4.4,0-7.2,2.3-7.2,6c0,4.1,3.2,7.4,7.2,7.4s7.2-3.3,7.2-7.4C43.4,44.3,40.6,41.9,36.2,41.9z"/>
	</g>
</g>
<g>
	<g>
		<path class="st0" d="M83,68.9c0-0.3-0.2-0.7-0.5-0.9c-0.5-0.4-1.1-0.5-1.7-0.5c-0.1,0-0.3,0-0.4,0s-0.2,0-0.3,0
			c1.6-5.7,3.7-18.1-9.8-17.1l6.6-5.5L76.2,44l-5.8,5.6c0.1-0.3,0.1-0.6,0.1-0.9c0-2.3-2.5-4.1-5.5-4.1s-5.5,1.8-5.5,4.1
			c0,0.3,0,0.6,0.1,0.8l-6.3-6l-0.7,0.9l7.2,6c-13.6-1-11.4,11.5-9.8,17.2c-0.1-0.1-0.3-0.1-0.5-0.1s-0.3,0-0.4,0
			c-0.6,0-1.2,0.1-1.7,0.5c-0.3,0.2-0.4,0.5-0.5,0.9c0,0.3,0.1,0.7,0.2,0.9c0.2,0.5,0.5,1,0.6,1.5c0.2,0.5,0.3,1.1,0.3,1.6
			c0,0.1,0,0.1,0,0.2v0.1v0.1c0,0.2,0.1,0.3,0.2,0.5c0.1,0.3,0.3,0.5,0.6,0.7c0.2,0.2,0.5,0.4,0.8,0.5c0.1,0,0.2,0.1,0.4,0.1
			c0,0.2,0,0.3,0.1,0.5c0.2,1.2,0.6,2.4,1.3,3.5c0.4,0.5,0.8,1,1.3,1.3c0.3,0.2,0.6,0.3,0.9,0.4C53.8,81,54,81,54.1,81l0.4,0.1
			c1.2,0.3,2.3,0.7,3.3,1.2c0.7,0.4,1.6,0.9,2.4,1.5c0.3,0.4,0.7,0.7,1,1c0.5,0.4,1,0.8,1.6,1.1c0.6,0.3,1.2,0.5,1.9,0.5
			s1.4-0.2,2-0.4c0.6-0.3,1.1-0.7,1.6-1.1c0.3-0.2,0.5-0.5,0.7-0.7c0.5-0.3,1.1-0.7,1.4-1c0.5-0.3,1-0.6,1.5-0.9
			c1-0.6,2.2-1,3.3-1.2l0.4-0.1c0.2,0,0.3-0.1,0.5-0.1c0.3-0.1,0.6-0.3,0.9-0.4c0.5-0.4,1-0.8,1.3-1.4c0.7-1,1.1-2.3,1.3-3.5
			c0-0.2,0-0.3,0-0.5c0.2,0,0.3,0,0.4,0c0.3-0.1,0.6-0.3,0.8-0.5c0.2-0.2,0.4-0.5,0.6-0.7c0.1-0.1,0.1-0.3,0.2-0.5v-0.1v-0.1
			c0-0.1,0-0.1,0-0.2c0.1-0.5,0.2-1.1,0.3-1.6c0.2-0.5,0.4-1,0.6-1.5C82.9,69.5,83,69.2,83,68.9z"/>
	</g>
	<path class="st2" d="M82.4,68c-0.5-0.4-1.1-0.5-1.7-0.5c-0.1,0-0.3,0-0.4,0s-0.2,0-0.3,0c1.6-5.7,3.7-18.1-9.8-17.1l6.6-5.5
		L76.1,44l-5.8,5.6c0.1-0.3,0.1-0.6,0.1-0.9c0-2.3-2.5-4.1-5.5-4.1s-5.5,1.8-5.5,4.1c0,0.3,0,0.6,0.1,0.8l-6.3-6l-0.7,0.9l7.2,6
		c-13.6-1-11.4,11.5-9.8,17.2c-0.1-0.1-0.3-0.1-0.5-0.1s-0.3,0-0.4,0c-0.6,0-1.2,0.1-1.7,0.5c-0.3,0.2-0.4,0.5-0.5,0.9
		c0,0.3,0.1,0.7,0.2,0.9c0.2,0.5,0.5,1,0.6,1.5c0.2,0.5,0.3,1.1,0.3,1.6c0,0.1,0,0.1,0,0.2v0.1v0.1c0,0.2,0.1,0.3,0.2,0.5
		c0.1,0.3,0.3,0.5,0.6,0.7c0.2,0.2,0.5,0.4,0.8,0.5c0.1,0,0.2,0.1,0.4,0.1c0,0.2,0,0.3,0.1,0.5c0.2,1.2,0.6,2.4,1.3,3.5
		c0.4,0.5,0.8,1,1.3,1.3c0.3,0.2,0.6,0.3,0.9,0.4C53.7,81,53.8,81,54,81l0.4,0.1c1.2,0.3,2.3,0.7,3.3,1.2c1.1,0.6,2,1.3,2.9,2.1
		c-0.9-0.8-1.8-1.7-2.8-2.3c-1-0.6-2.2-1.1-3.4-1.4L54,80.6c-0.1,0-0.3-0.1-0.4-0.1c-0.3-0.1-0.5-0.3-0.7-0.4
		c-0.5-0.3-0.8-0.8-1.2-1.3c-0.6-1-1-2.1-1.1-3.3c-0.2-1.2-0.1-2.3,0.1-3.5c0.1-0.6,0.3-1.1,0.5-1.6c0.1-0.3,0.2-0.5,0.4-0.8
		l0.1-0.2l0.1-0.1l0.1-0.1c0.1-0.2,0.1-0.3,0.2-0.4l0,0c0.6,0.1,0.7,1.4,1.4,2.9c0.6,1.5,1.1,2.6,2.7,3.2c1.7,0.7,3.8,0.1,5.2-1.1
		c1.4-1.3,1.9-4,1.9-4.7c-0.1-0.7-0.1-1.1,0.1-1.3c0.2-0.2,1.1-0.1,1.5,0l0,0c0,0,0,0,0.1,0h0.1l0,0c0.3,0,1.3-0.1,1.5,0
		c0.2,0.2,0.2,0.6,0.1,1.3s0.5,3.4,1.9,4.7c1.4,1.3,3.5,1.8,5.2,1.1c1.6-0.6,2-1.7,2.7-3.2c0.5-1.3,0.8-2.4,1.2-2.8
		c0,0.1,0.1,0.2,0.1,0.2c0,0.1,0.1,0.1,0.1,0.2l0.1,0.2c0.1,0.2,0.3,0.5,0.4,0.8c0.2,0.5,0.4,1.1,0.5,1.6c0.3,1.1,0.3,2.3,0.1,3.5
		c-0.2,1.1-0.5,2.3-1.2,3.2c-0.3,0.5-0.7,0.9-1.2,1.2c-0.2,0.2-0.5,0.3-0.7,0.4c-0.1,0.1-0.3,0.1-0.4,0.1l-0.4,0.1
		c-1.2,0.3-2.3,0.8-3.4,1.5c-1,0.6-2,1.4-2.8,2.3c0.5-0.4,0.9-0.8,1.4-1.1c0.5-0.3,1-0.6,1.5-0.9c1-0.6,2.2-1,3.3-1.2l0.4-0.1
		c0.2,0,0.3-0.1,0.5-0.1c0.3-0.1,0.6-0.3,0.9-0.4c0.5-0.4,1-0.8,1.3-1.4c0.7-1,1.1-2.3,1.3-3.5c0-0.2,0-0.3,0-0.5c0.2,0,0.3,0,0.4,0
		c0.3-0.1,0.6-0.3,0.8-0.5c0.2-0.2,0.4-0.5,0.6-0.7c0.1-0.1,0.1-0.3,0.2-0.5v-0.1v-0.1c0-0.1,0-0.1,0-0.2c0.1-0.5,0.2-1.1,0.3-1.6
		c0.2-0.5,0.4-1,0.6-1.5c0.1-0.2,0.2-0.6,0.2-0.9C82.9,68.5,82.7,68.2,82.4,68z M50.7,70.1L50.7,70.1c-0.1-0.2-0.1-0.5-0.3-0.7
		c-0.1-0.2-0.2-0.4-0.4-0.5c-0.1-0.1-0.2-0.2-0.3-0.2s-0.1,0-0.2-0.1c-0.1,0-0.1,0-0.1,0c-0.3,0-0.7,0-1.1,0.1
		c-0.1,0-0.2,0.1-0.3,0.2c0,0.1,0,0.2,0,0.3c0,0.2,0.1,0.3,0.1,0.5c0.1,0.3,0,0.7,0.1,1c0,0.1,0,0.2,0,0.3v0.1c0,0.1,0,0.1,0.1,0.2
		c0.1,0.2,0.2,0.3,0.3,0.5c0.2,0.3,0.5,0.5,0.9,0.6c-0.3-0.2-0.5-0.5-0.7-0.7c-0.1-0.1-0.2-0.3-0.2-0.4s-0.1-0.3-0.1-0.5
		c-0.1-0.3-0.2-0.7-0.3-1c0-0.2-0.1-0.3-0.1-0.5c0-0.1,0-0.2,0.1-0.2c0,0,0.1,0,0.2,0c0.3,0.1,0.6,0.3,0.9,0.4h0.1l0,0
		c0,0,0.1,0,0.1,0.1l0.1,0.1c-0.1,0.1-0.1,0.1-0.2,0.2c-0.5,0.3-0.8,0.5-0.4,0.8c0.3,0.3,1,0.3,1.3,0.8c0,0.2-0.1,0.3-0.1,0.5
		c-0.2,0.9-0.3,1.7-0.2,2.6h-0.1c-0.2-0.1-0.4-0.2-0.5-0.4c-0.2-0.2-0.3-0.4-0.5-0.6c-0.1-0.1-0.1-0.2-0.1-0.3c0,0,0,0,0-0.1v-0.1
		c0-0.1,0-0.1-0.1-0.2c-0.2-0.6-0.5-1-0.6-1.6c-0.2-0.5-0.4-1.1-0.5-1.6c-0.1-0.3-0.1-0.5-0.1-0.7s0.1-0.4,0.3-0.6
		c0.4-0.3,0.9-0.4,1.4-0.4c1-0.2,1.6,0.8,1.9,1.7C50.8,69.9,50.8,70,50.7,70.1z M62.2,70.5c-0.3,1.7-1.5,3.8-4.2,4
		c-2.7,0.1-3.9-2.5-4.3-4.8c-0.3-2.3,3.1-3.1,4-3c0,0,1.8,0,2.8,0.6c0.5,0.3,1.1,0.8,1.4,1.4c-0.4-0.3-0.9-0.6-1.4-0.7
		s-1.1-0.1-1.6-0.1c-0.5,0.1-1.1,0.2-1.6,0.4c-0.4,0.2-0.9,0.4-1.3,0.7c-0.2-0.1-0.4-0.2-0.7-0.2c0.2,0.2,0.5,0.3,0.7,0.5
		s0.4,0.3,0.6,0.5c0.4,0.4,0.8,0.8,1.1,1.2c-0.2-0.5-0.5-1-0.9-1.4c-0.2-0.2-0.4-0.4-0.7-0.5c1-0.2,1.9-0.3,2.8-0.4c0.5,0,1,0,1.5,0
		s1,0,1.5,0C62.2,69.1,62.4,69.7,62.2,70.5z M76.2,69.6c-0.3,2.3-1.5,5-4.3,4.8c-2.7-0.1-3.9-2.3-4.2-4c-0.1-0.7,0-1.4,0.3-1.9
		c0.4,0,0.7,0,1.1,0c0.5,0,1,0,1.5,0c0.9,0.1,1.9,0.2,2.9,0.4c-0.2,0.1-0.5,0.3-0.7,0.5c-0.4,0.4-0.7,0.9-0.9,1.4
		c0.3-0.4,0.7-0.8,1.1-1.2c0.2-0.2,0.4-0.3,0.6-0.5s0.4-0.3,0.7-0.5c-0.3,0-0.5,0.1-0.8,0.2c-0.4-0.3-0.8-0.6-1.3-0.7
		c-0.5-0.2-1-0.3-1.6-0.4c-0.5-0.1-1.1,0-1.6,0.1c-0.3,0.1-0.5,0.1-0.7,0.2c0.3-0.4,0.7-0.8,1.2-1c1-0.5,2.8-0.6,2.8-0.6
		C73.1,66.5,76.6,67.3,76.2,69.6z M58.1,65.8c-1.4,0.1-2.7,0.3-3.2,0.5c-0.6,0.2-1.8,0.5-2.4,0.6c0-0.6,0.1-1.2,0.1-1.8
		c0-1.2,0-2.4,0-3.6c0-0.1,0.1-0.1,0.2-0.2c1.3-0.5,3.4-1.3,4.4-1.7c0.5-1.6,0.6-1.9,1-3c-0.2,1.8-0.1,1.9-0.1,2.7
		c0.5-0.1,1.8-0.5,3.7-0.7c0.7-0.1,1.4-0.1,2.1-0.2c1.6-0.1,3.1-0.1,4.7,0s3.1,0.4,4.6,0.9c1.4,0.5,2.8,1.2,4,2.1
		c0,1.2,0,2.3,0.1,3.5c0,0.6,0.1,1.2,0.1,1.7c-0.6-0.1-1.6-0.4-2.1-0.6s-1.9-0.4-3.2-0.5c-0.9-0.1-2.8,0.4-3.7,0.9
		c-0.4,0.3-0.6,0.3-0.9,0.3c-0.6-0.1-0.7-0.2-1.3,0c-0.5,0.2-0.9,0.2-1,0.2s-0.5,0-1-0.2c-0.6-0.2-0.8-0.1-1.3,0
		c-0.4,0.1-0.5,0-0.9-0.3C60.9,66.1,59.4,65.8,58.1,65.8z M82.3,69.7c-0.2,0.5-0.3,1.1-0.5,1.6s-0.5,1-0.6,1.6c0,0.1,0,0.1-0.1,0.2
		v0.1c0,0,0,0,0,0.1S81,73.5,81,73.6c-0.1,0.2-0.3,0.4-0.5,0.6s-0.4,0.3-0.5,0.4c-0.1,0-0.1,0-0.2,0.1c0-0.9,0-1.8-0.2-2.7
		c0-0.1-0.1-0.3-0.1-0.4c0.3-0.6,1.1-0.5,1.4-0.9c0.4-0.3,0.1-0.5-0.4-0.8c-0.1-0.1-0.2-0.1-0.2-0.2l0.1-0.1l0.1-0.1l0,0h0.1
		c0.3-0.1,0.6-0.3,0.9-0.4c0.1,0,0.1,0,0.2,0c0,0,0.1,0.1,0.1,0.2c0,0.2,0,0.3-0.1,0.5c-0.1,0.3-0.2,0.7-0.3,1
		c-0.1,0.2-0.1,0.4-0.1,0.5c-0.1,0.1-0.1,0.3-0.2,0.4c-0.2,0.3-0.4,0.6-0.7,0.7c0.4,0,0.7-0.3,0.9-0.6c0.1-0.1,0.2-0.3,0.3-0.5
		c0,0,0-0.1,0.1-0.2V71c0-0.1,0-0.2,0-0.3c0-0.3,0-0.7,0.1-1c0-0.2,0.1-0.3,0.1-0.5c0-0.1,0-0.2,0-0.3c0-0.1-0.2-0.2-0.3-0.2
		c-0.4-0.1-0.8-0.1-1.1-0.1h-0.1c-0.1,0-0.1,0-0.2,0.1c-0.1,0-0.2,0.1-0.3,0.2c-0.2,0.2-0.3,0.3-0.4,0.5c-0.1,0.3-0.2,0.5-0.3,0.8
		v-0.1c-0.1-0.1-0.1-0.2-0.2-0.3c0.3-1,0.9-2,1.9-1.8c0.5,0,1.1,0.1,1.4,0.4c0.2,0.1,0.3,0.3,0.3,0.6C82.5,69.2,82.4,69.4,82.3,69.7
		z"/>
	<g>
		<g>
			<g>
				<g>
					<path d="M74.1,64.3c-0.3-0.2-0.7-0.5-0.9-0.6c-0.3-0.1-1.3-0.1-2.3,0c-0.2,0-0.4,0.1-0.5,0.1c-0.7,0.2-1.4,0.4-2.1,0.7
						c-0.3,0.1-0.5,0.3-0.8,0.4c0,0.2,0,0.6,0.1,0.7l0,0c-0.1-0.1-0.1-0.2-0.2-0.2c0,0.2,0.1,0.4,0.1,0.5c0.1,0.1,0.3,0.2,0.5,0.3
						c1.4-0.8,2.9-1.5,4.5-1.3c1,0.1,1.7,0.2,2.4,0.8c0,0,0,0,0.1-0.1C74.9,65.2,74.4,64.7,74.1,64.3z"/>
				</g>
			</g>
			<g>
				<g>
					<path d="M74.9,65.6c-1.4-1.1-3.1-1.5-4.7-0.9c-0.8,0.3-1.6,0.7-2.3,1.1c-0.1,0.1-0.3,0.1-0.4,0c0,0,0,0.1,0.1,0.1
						c0.1,0.1,0.3,0.2,0.5,0.3c1.4-0.8,2.9-1.5,4.5-1.3C73.4,65,74.2,65.2,74.9,65.6C74.9,65.7,74.9,65.7,74.9,65.6
						C74.9,65.7,74.9,65.6,74.9,65.6z"/>
				</g>
			</g>
		</g>
		<g>
			<g>
				<g>
					<path d="M55.8,64.3c0.3-0.2,0.7-0.5,0.9-0.6c0.3-0.1,1.3-0.1,2.3,0c0.2,0,0.4,0.1,0.5,0.1c0.7,0.2,1.4,0.4,2.1,0.7
						c0.3,0.1,0.5,0.3,0.8,0.4c0,0.2,0,0.6-0.1,0.7l0,0c0.1-0.1,0.1-0.2,0.2-0.2c0,0.2-0.1,0.4-0.1,0.5c-0.1,0.1-0.3,0.2-0.5,0.3
						c-1.4-0.8-2.9-1.5-4.5-1.3c-1,0.1-1.7,0.2-2.4,0.8c0,0,0,0-0.1-0.1C55,65.2,55.5,64.7,55.8,64.3z"/>
				</g>
			</g>
			<g>
				<g>
					<path d="M55,65.6c1.4-1.1,3.1-1.5,4.7-0.9c0.8,0.3,1.6,0.7,2.3,1.1c0.1,0.1,0.3,0.1,0.4,0c0,0,0,0.1-0.1,0.1
						c-0.1,0.1-0.3,0.2-0.5,0.3c-1.4-0.8-2.9-1.5-4.5-1.3C56.5,65,55.8,65.2,55,65.6C55.1,65.7,55,65.7,55,65.6
						C55,65.7,55,65.6,55,65.6z"/>
				</g>
			</g>
		</g>
	</g>
	<g>
		<path d="M70,75.9c0.1,0.2,0.1,0.5-0.2,0.6c-0.1,0-0.2,0-0.4,0.1c-0.3,0.1-0.7,0.1-1.1,0.1c-0.8,0.1-1.5,0.1-2.3,0.1
			c-1.1,0-2.2-0.3-3.3-0.1c-0.1,0-0.2,0-0.3,0c-0.6,0.1-1.1,0.3-1.7,0.3c-0.2,0-0.4,0-0.6-0.1c-0.3,0-0.5-0.1-0.6-0.3
			c0.2,0.4,0.5,0.6,0.9,0.6c0.7,0.6,1,1.7,1.9,2.1s2,0.6,3,0.6c0.9,0,1.8-0.3,2.4-0.8c0.3-0.3,0.5-0.6,0.7-1
			c0.3-0.6,0.6-0.9,1.2-1.3l0,0c0.1,0,0.2-0.1,0.3-0.1H70l0,0l0,0l0.1-0.1C70.3,76.3,70.2,76,70,75.9z M68.3,78
			c-0.5,1-1.3,1.5-2.6,1.6c-1,0.1-2.1-0.1-3-0.5c-1-0.3-1.2-1.4-2-2c0.1,0,0.1,0,0.2,0c1.1-0.1,2.1-0.5,3.2-0.5l0,0
			c0.8,0.1,1.7,0.3,2.5,0.3c0.7,0,1.7,0.1,2.5-0.1C68.7,77.1,68.5,77.6,68.3,78z"/>
		<path d="M68.3,78c-0.5,1-1.3,1.5-2.6,1.6c-1,0.1-2.1-0.1-3-0.5c-1-0.3-1.2-1.4-2-2c0.1,0,0.1,0,0.2,0c1.1-0.1,2.1-0.5,3.2-0.5l0,0
			c0.8,0.1,1.7,0.3,2.5,0.3c0.7,0,1.7,0.1,2.5-0.1C68.7,77.1,68.5,77.6,68.3,78z"/>
		<path class="st0" d="M68,77.5c0.2-0.2,0.3-0.4,0.4-0.6c-0.6,0-1.3,0-1.8,0c-0.8,0-1.7-0.2-2.5-0.3l0,0c-0.8,0-1.6,0.3-2.4,0.4
			c0.2,0.4,0.4,0.7,1.1,0.9c0.6,0.1,1.2,0.3,1.8,0.3c0.8,0,1.5,0,2.2-0.2C67.3,77.9,67.7,77.8,68,77.5z"/>
		<path class="st0" d="M65.4,78.8c-1-0.1-1.7,0-2.5,0.4c0.9,0.3,1.9,0.5,2.8,0.4c0.4,0,0.8-0.1,1.2-0.3C66.5,79,66,78.8,65.4,78.8z"
			/>
		<path d="M63.3,80.8c0.8,0.7,2.2,0.7,3,0.1l0.1-0.1C65.3,81,64.3,81.1,63.3,80.8z"/>
	</g>
	<path class="st2" d="M67.8,84.5c-1,0.7-2,1.3-3.1,1.2c-0.3,0-0.5-0.1-0.8-0.1c-0.3-0.1-0.5-0.2-0.8-0.3c-0.5-0.2-1-0.5-1.5-0.9
		c-1-0.7-1.9-1.5-2.7-2.4c0.6,1.1,1.4,2.1,2.3,2.9c0.5,0.4,1,0.8,1.6,1.1c0.6,0.3,1.2,0.5,1.9,0.5c0.7,0,1.4-0.2,2-0.4
		c0.6-0.3,1.1-0.7,1.6-1.1c0.9-0.9,1.7-1.9,2.2-3C69.6,82.9,68.7,83.7,67.8,84.5z"/>
	<path class="st2" d="M60.2,69.2c-0.4,0-0.7,0-1.1,0c-0.7,0-1.5-0.1-2.2-0.1c0.4,0.1,0.7,0.2,1.1,0.3c0.4,0.1,0.7,0.1,1.1,0.1
		c0.4,0,0.7,0,1.1,0c0.4,0,0.8,0,1.1-0.4C60.8,69.1,60.5,69.2,60.2,69.2z"/>
	<path class="st2" d="M70.5,69.2c-0.4,0-0.7,0-1.1,0s-0.7-0.1-1.1-0.1c0.3,0.4,0.7,0.4,1.1,0.4s0.8,0,1.1,0c0.4,0,0.7-0.1,1.1-0.1
		c0.4-0.1,0.7-0.1,1.1-0.3C71.9,69.2,71.2,69.2,70.5,69.2z"/>
	<path class="st2" d="M64.5,73.2c0,0-0.8-0.8-1.2-0.5C63,73.1,63.7,73.4,64.5,73.2z"/>
	<path class="st2" d="M65.5,73.2c0.7,0.1,1.5-0.2,1.2-0.5C66.2,72.4,65.5,73.2,65.5,73.2z"/>
	<path class="st2" d="M66.7,73.4c0.2,0,0.4-0.1,0.5-0.3c0.1-0.2,0.1-0.5,0.1-0.7c-0.1-0.2-0.2-0.4-0.3-0.5c-0.1-0.1-0.2-0.3-0.3-0.4
		c-0.1,0.2,0,0.4,0,0.6c0.1,0.2,0.1,0.3,0.2,0.5c0,0.1,0.1,0.3,0,0.4C66.9,73,66.8,73.2,66.7,73.4z"/>
	<path class="st2" d="M62.9,71.9c-0.1,0.1-0.2,0.3-0.3,0.5s-0.1,0.5,0.1,0.7c0.1,0.2,0.3,0.3,0.5,0.3C63.1,73.2,63,73,63,72.9
		s0-0.2,0-0.4c0-0.1,0.1-0.3,0.2-0.5c0.1-0.2,0.1-0.4,0-0.6C63.1,71.6,63,71.7,62.9,71.9z"/>
	<path class="st2" d="M63.7,74.4v0.2c0,0.1,0,0.1,0.1,0.2c0.1-0.1,0.1-0.1,0.1-0.2v-0.2c0-0.1,0-0.1,0-0.2s0-0.1-0.1-0.2
		c-0.1,0.1-0.1,0.1-0.1,0.2C63.7,74.2,63.7,74.3,63.7,74.4z"/>
	<path class="st2" d="M65.8,73.9c-0.1,0.1-0.1,0.2-0.1,0.3c0,0.1,0,0.2,0,0.3l0.1,0.3c0,0.1,0,0.2,0.1,0.3c0-0.1,0-0.2,0-0.3v-0.3
		c0-0.1,0-0.2,0-0.3C65.9,74.2,65.8,74.1,65.8,73.9z"/>
</g>
<g>
	<path class="st1" d="M94.6,30.7H68.4v2h26.2c0.8,0,0.9,0.5,0.9,0.9v78.5c0,0.8-0.5,0.9-0.9,0.9H11.1c-0.8,0-0.9-0.5-0.9-0.9V33.6
		c0-0.8,0.5-0.9,0.9-0.9h10.8v-2H11.1c-1.2,0-2.9,0.8-2.9,2.9v78.5c0,1.2,0.8,2.9,2.9,2.9h83.5c1.2,0,2.9-0.8,2.9-2.9V33.6
		C97.6,32.5,96.8,30.7,94.6,30.7z"/>
</g>
</svg>
