<?xml version="1.0" encoding="utf-8"?>
<!-- Generator: Adobe Illustrator 22.1.0, SVG Export Plug-In . SVG Version: 6.00 Build 0)  -->
<svg version="1.1" id="Laag_1" xmlns="http://www.w3.org/2000/svg" xmlns:xlink="http://www.w3.org/1999/xlink" x="0px" y="0px"
	 viewBox="0 0 106.7 119.1" style="enable-background:new 0 0 106.7 119.1;" xml:space="preserve">
<style type="text/css">
	.st0{fill:#FFFFFF;}
	.st1{fill:#000100;}
	.st2{fill:#1D1D1B;}
</style>
<path class="st0" d="M95.3,113.7H10.4c-0.4,0-0.7-0.3-0.7-0.7V32c0-0.4,0.3-0.7,0.7-0.7h84.9c0.4,0,0.7,0.3,0.7,0.7v81
	C96,113.4,95.7,113.7,95.3,113.7z"/>
<rect x="24.4" y="30.9" class="st0" width="55.9" height="2"/>
<g>
	<g>
		<path class="st0" d="M94.8,30.9H78.5l-0.7,2h17c0.8,0,0.9,0.5,0.9,0.9v78.5c0,0.8-0.5,0.9-0.9,0.9H11.3c-0.8,0-0.9-0.5-0.9-0.9
			V33.8c0-0.8,0.5-0.9,0.9-0.9h16.6l-0.1-2H11.3c-1.2,0-2.9,0.8-2.9,2.9v78.5c0,1.2,0.8,2.9,2.9,2.9h83.5c1.2,0,2.9-0.8,2.9-2.9
			V33.8C97.8,32.7,97,30.9,94.8,30.9z"/>
	</g>
	<g>
		<path class="st0" d="M94.8,30.9H78.5l-0.7,2h17c0.8,0,0.9,0.5,0.9,0.9v78.5c0,0.8-0.5,0.9-0.9,0.9H11.3c-0.8,0-0.9-0.5-0.9-0.9
			V33.8c0-0.8,0.5-0.9,0.9-0.9h16.6l-0.1-2H11.3c-1.2,0-2.9,0.8-2.9,2.9v78.5c0,1.2,0.8,2.9,2.9,2.9h83.5c1.2,0,2.9-0.8,2.9-2.9
			V33.8C97.8,32.7,97,30.9,94.8,30.9z"/>
	</g>
</g>
<g>
	<path class="st0" d="M78.2,49.2c-0.3-1.3-0.5-2.6-0.8-3.9c-0.2-1-0.8-1.6-1.9-1.6c-0.9,0-1-0.2-1-0.8l0,0c1-2.9,1-5.9,1.8-8.8
		c0.2-0.8,0.2-1.8,0-2.7c-0.5-1.9-1.1-3.9-1.9-5.7c-0.3-0.7-0.8-1.4-1.2-2.1c-0.1-0.5-0.4-0.9-0.9-1.2c-0.2-0.2-0.4-0.5-0.6-0.7
		c-0.5-0.6-1.5-0.8-2.3-1.1h-0.1c-0.7-0.6-1.2-1.3-1.9-2.2c-0.9-2.1-2.3-3.8-5.3-3.8c-2.9,0-5.7-0.6-8.5-1.4h-3.2
		c-0.3,0.1-0.6,0.3-0.9,0.4c-3.3,0.3-6.1,1.6-8.7,3.5c-2.4,1.8-4.9,3.5-7.3,5.4c-1.6,1.2-2.3,2.9-2.7,4.7
		c-1.1,5.2-0.4,10.3,0.7,15.4c0.2,0.9,0.2,1.2-0.9,1.2c-1,0-1.6,0.7-1.9,1.6c-0.3,1.3-0.5,2.6-0.8,3.9c-0.5,2.5,0.6,6.1,1.9,8.2
		c0.4,0.7,0.9,1.6,1.6,2.3c0.6,1,1.3,2.1,2.9,1.4c0.1-0.1,0.6,0.4,0.7,0.6c0.2,3.8,2.2,6.8,4.6,9.6c2.2,2.6,4.8,4.8,7.8,6.5
		c1.4,0.8,3,1.2,4.5,1.3c2.1,0.2,4.5,0.3,6.5-0.6c2.7-1.1,4.3-3.3,6.3-5.2c0.8-0.8,1.6-1.5,2.4-2.4c1.1-1.3,1.8-2.8,2.5-4.3
		c0.3-0.6,0.5-1.1,0.7-1.7l0,0l0,0c0.4-1,0.6-2.1,0.7-3.3c0-0.2,0.6-0.6,0.7-0.6c1.6,0.8,2.3-0.3,2.9-1.4c0.6-0.7,1.2-1.6,1.6-2.3
		C77.6,55.2,78.7,51.7,78.2,49.2z"/>
	<path class="st1" d="M52.8,56.6c0,0-1.3-0.6-1.9-0.4C50.2,56.5,51.5,56.7,52.8,56.6z"/>
	<path class="st1" d="M54.4,56.6c1.2,0.1,2.5-0.1,1.9-0.4C55.7,56,54.4,56.6,54.4,56.6z"/>
	<path class="st1" d="M56.5,57.1c0.3,0,0.7-0.2,0.9-0.5s0.2-0.6,0.1-0.9c-0.1-0.3-0.1-0.3-0.3-0.5s-0.5-0.7-0.7-1
		c-0.1,0.3,0.1,1,0.2,1.2c0.1,0.3,0,0,0.1,0.3c0.1,0.2,0.1,0.4,0,0.6C56.8,56.5,56.6,56.8,56.5,57.1z"/>
	<path class="st1" d="M50.2,54.6c-0.2,0.2-0.4,0.5-0.5,0.8s-0.1,0.8,0.1,1.1c0.2,0.3,0.6,0.5,0.9,0.5c-0.2-0.3-0.3-0.5-0.4-0.7
		c-0.1-0.2,0-0.4,0-0.6c0.1-0.2,0.2-0.5,0.3-0.8s0.7-1.5,0.6-1.9C51.1,53.3,50.3,54.4,50.2,54.6z"/>
	<path class="st1" d="M51.5,58.5v0.4c0,0.1,0,0.2,0.1,0.4c0.1-0.1,0.1-0.2,0.2-0.3l0.1-0.4c0-0.1,0-0.2,0-0.4c0-0.1,0-0.2-0.1-0.4
		c-0.1,0.1-0.2,0.2-0.2,0.3C51.5,58.3,51.5,58.4,51.5,58.5z"/>
	<path class="st1" d="M54.9,57.8c-0.1,0.2-0.1,0.4-0.1,0.6c0,0.2,0,0.4,0,0.5l0.1,0.5c0,0.2,0.1,0.4,0.2,0.5
		c0.1-0.2,0.1-0.4,0.1-0.6v-0.6c0-0.2,0-0.4-0.1-0.5C55.1,58.1,55,58,54.9,57.8z"/>
	<path class="st1" d="M56.3,44.2c-0.6,1.4-0.7,2.9-0.5,4.5"/>
	<path class="st1" d="M66,49.3c0.4-0.3,2.3-1.1,2.8-1.4c-0.4,0-0.9,0.2-1.3,0.4c-0.7-0.6-1-1.4-1.8-1.8c-0.8-0.3-1.2-0.5-2.3-0.7
		c-1-0.1-1.9,0.3-2.9,0.6c-1.1,0.4-3.1,2.1-2.7,2.1c0,0,2.2-1.9,4.9-1.8c2.2,0.1,3.7,0.9,4.6,1.6C66.8,48.6,66.4,49,66,49.3z"/>
	<path class="st1" d="M50,38.1c0,0.4-0.1,0.9-0.1,1.3v1.3c0,0.4,0,0.9,0.1,1.3c0.1-0.4,0.2-0.9,0.2-1.3l0.1-1.3c0-0.4,0-0.9,0-1.3
		c0-0.4,0-0.9-0.1-1.3C50,37.3,50,37.7,50,38.1z"/>
	<path class="st1" d="M56.2,39.1c-0.1,0.3-0.1,0.5-0.1,0.8c0,0.2,0,0.5,0,0.7l0.1,0.7c0,0.2,0,0.5,0.2,0.7c0.1-0.3,0.1-0.5,0.1-0.8
		v-0.7c0-0.2,0-0.5,0-0.7C56.4,39.6,56.3,39.3,56.2,39.1z"/>
	<path class="st1" d="M67.6,49.5c0,0,1.1-1.5,2.8-1.9"/>
	<path class="st1" d="M57.9,54.4"/>
	<path class="st1" d="M70.3,46.4c0,0-1.4,1.1-3.2,1.1"/>
	<path class="st1" d="M70.7,44.5c0,0-0.8,1.6-2.5,2.3"/>
	<path class="st1" d="M61.4,59.7c0,0-2.7-2.1-3-4.7"/>
	<path class="st1" d="M45.8,59.7c0,0,2.7-2.1,3-4.7"/>
	<path class="st1" d="M50,53.8c0,0,1.5-1.8,1.3-3.8"/>
	<path class="st1" d="M49,38.4c0,0.7,0.1,2.6,0.1,2.6"/>
	<path class="st1" d="M57.3,40.3c-0.1,0.3-0.3,1.5-0.3,1.5"/>
	<path class="st1" d="M42.6,34.9c3.3-0.8,9.4-2.1,14.6-1.5c5.2,0.7-2.7,0.1-2.7,0.1S47.7,33.8,42.6,34.9z"/>
	<path class="st1" d="M45.5,32.8c3.3-0.8,9.4-2.1,14.6-1.5s-3.7,0.2-3.7,0.2S50.6,31.6,45.5,32.8z"/>
	<path class="st1" d="M63.4,46.4l-2.2-0.1c-0.7,0.5-0.7,1.2-0.2,1.9s1.4,0.8,2.1,0.4C63.8,48.1,63.9,47.1,63.4,46.4z M63.1,47.7
		c-0.3,0-0.5-0.2-0.5-0.5s0.2-0.5,0.5-0.5s0.5,0.2,0.5,0.5S63.4,47.7,63.1,47.7z"/>
	<path class="st1" d="M60.3,45.6c0.7-0.2,1.3-0.4,2-0.5s1.4,0,2.1,0.2c0.2,0,0.3,0.1,0.5,0.2l0.3,0.1l0.2,0.1c0.1,0,0.2,0.1,0.2,0.1
		l0.2,0.2c0.1,0.1,0.1,0.1,0.2,0.2l0.2,0.2c0.5,0.5,0.9,1.1,1.2,1.8l-0.2,0.1c-0.4-0.6-0.8-1.1-1.3-1.5s-1.1-0.8-1.7-1
		s-1.3-0.3-2-0.3C61.6,45.5,61,45.5,60.3,45.6z"/>
	<path class="st1" d="M39.3,48.3c0.8-0.7,2.7-1.5,4.9-1.6c2.8-0.1,4.6,1.8,4.6,1.8c0.4,0-1.8-2-2.9-2.4c-0.9-0.3-2.2-0.3-3.1-0.2
		c-1,0.1-1,0.1-1.9,0.4c-0.8,0.3-1,1.2-1.7,1.8c-0.4-0.2-0.8-0.3-1.3-0.4c0.4,0.3,2.4,1.1,2.8,1.4C40.3,48.9,39.8,48.6,39.3,48.3z"
		/>
	<path class="st1" d="M38.9,49.5c0,0-1.1-1.5-2.8-1.9"/>
	<path class="st1" d="M36.2,46.4c0,0,1.4,1.1,3.2,1.1"/>
	<path class="st1" d="M45.4,46.1l-2.2,0.3c-0.6,0.6-0.5,1.3,0.1,1.9c0.6,0.6,1.5,0.6,2.1,0C46,47.7,46,46.7,45.4,46.1z M45.3,47.5
		c-0.3,0-0.5-0.1-0.6-0.4c0-0.3,0.1-0.5,0.4-0.6c0.3,0,0.5,0.1,0.6,0.4C45.7,47.2,45.5,47.4,45.3,47.5z"/>
	<path class="st1" d="M44,45.4c-0.3,0-0.5,0.1-0.7,0.1s-0.5,0.1-0.7,0.2c-0.4,0.2-0.8,0.4-1.2,0.7c-0.1,0.1-0.2,0.1-0.3,0.2
		c-0.1,0.1-0.2,0.1-0.3,0.2L40.6,47c-0.1,0.1-0.2,0.2-0.3,0.2c-0.4,0.3-0.7,0.7-1.1,1L39,48.1c0.3-0.4,0.6-0.8,0.9-1.2
		c0.3-0.4,0.7-0.7,1.1-1c0.4-0.3,0.9-0.5,1.4-0.6c0.3,0,0.5-0.1,0.8,0C43.6,45.3,43.8,45.3,44,45.4z"/>
	<g>
		<g>
			<g>
				<g>
					<path d="M68.3,41c-0.5-0.4-1.1-0.8-1.5-1c-0.5-0.2-2.1-0.2-3.8,0.1c-0.3,0.1-0.6,0.1-0.9,0.2c-1.1,0.3-2.4,0.6-3.4,1.2
						c-0.4,0.2-0.8,0.5-1.3,0.7c0,0.4,0.1,1.1,0.1,1.2c0,0,0,0-0.1-0.1s-0.2-0.3-0.3-0.4c0,0.3,0.1,0.6,0.2,0.9
						c0.2,0.2,0.5,0.4,0.8,0.5c2.3-1.3,4.7-2.4,7.5-2.2c1.6,0.1,2.9,0.4,4,1.3l0.1-0.1C69.5,42.5,68.8,41.6,68.3,41z"/>
				</g>
			</g>
			<g>
				<g>
					<path d="M69.6,43.1c-2.3-1.8-5.1-2.4-7.8-1.5c-1.4,0.5-2.6,1.2-3.9,1.9c-0.2,0.1-0.5,0.1-0.7,0.1c0,0.1,0.1,0.1,0.1,0.2
						c0.2,0.2,0.5,0.4,0.8,0.5c2.3-1.3,4.7-2.4,7.5-2.2c1.6,0.1,2.9,0.4,4,1.3C69.5,43.3,69.6,43.2,69.6,43.1
						C69.6,43.2,69.6,43.2,69.6,43.1z"/>
				</g>
			</g>
		</g>
		<g>
			<g>
				<g>
					<path d="M37.9,41c0.5-0.4,1.1-0.8,1.5-1c0.5-0.2,2.1-0.2,3.8,0.1c0.3,0.1,0.6,0.1,0.9,0.2c1.2,0.3,2.4,0.6,3.4,1.2
						c0.4,0.2,0.8,0.5,1.3,0.7c0,0.4-0.1,1.1-0.1,1.2c0,0,0,0,0.1-0.1s0.2-0.3,0.3-0.4c0,0.3-0.1,0.6-0.2,0.9
						c-0.2,0.2-0.5,0.4-0.8,0.5c-2.3-1.3-4.7-2.4-7.5-2.2c-1.6,0.1-2.9,0.4-4,1.3l-0.1-0.1C36.6,42.5,37.3,41.6,37.9,41z"/>
				</g>
			</g>
			<g>
				<g>
					<path d="M36.5,43.1c2.3-1.8,5.1-2.4,7.8-1.5c1.4,0.5,2.6,1.2,3.9,1.9c0.2,0.1,0.5,0.1,0.7,0.1c0,0.1-0.1,0.1-0.1,0.2
						c-0.2,0.2-0.5,0.4-0.8,0.5c-2.3-1.3-4.7-2.4-7.5-2.2c-1.6,0.1-2.9,0.4-4,1.3C36.6,43.3,36.6,43.2,36.5,43.1
						C36.5,43.2,36.5,43.2,36.5,43.1z"/>
				</g>
			</g>
		</g>
	</g>
	<path d="M30.4,49.4c-0.4,0.7,0,1.9,0.2,2.7c0.1,0.4,0.3,0.8,0.3,1.3c0,0.1,0,0.2,0,0.3s-0.1,0.1-0.1,0.1l0,0l0,0l0,0
		c-0.2,0-0.3-0.1-0.4-0.3v-0.1l0,0c0-0.2-0.1-0.4-0.1-0.6c-0.2-0.5-0.3-1.1-0.4-1.5c-0.2-0.7-0.8-4.8,1.1-4.4
		c0.7,0.2,1.7,1.7,1.6,2.4v0.1C32,50.3,30.4,49.3,30.4,49.4z M32.6,56.8c-0.2-0.1-0.3-0.3-0.5-0.4c-0.2-0.2-0.4-0.5-0.7-0.5l0,0
		c0,0.2,0.3,0.5,0.5,0.7c0.2,0.3,0.5,0.8,0.8,0.9c0.3,0.1,0.5-0.2,0.3-0.4C32.9,57,32.7,56.9,32.6,56.8z M32.6,51.1
		c0.1-0.1-0.2-0.4-0.4-0.4c-0.3,0-0.4,0.5-0.4,0.7c-0.5,0.8-0.7,2.2-0.5,3.1c0.2,0.7,1.4,1.5,1.8,0.6C33.7,54.1,32.1,52.4,32.6,51.1
		z M75.3,53.4c0,0.1,0,0.3,0.1,0.4c0.2,0.3,0.5-0.7,0.5-0.8c0.2-0.6,0.3-1.2,0.5-1.9s0.8-4.8-1.1-4.4c-0.7,0.2-1.7,1.7-1.6,2.4v0.1
		c0.4,1,2,0,2,0c0.4,0.7,0,1.9-0.2,2.7C75.4,52.5,75.3,53,75.3,53.4z M73,55c0.4,0.9,1.6,0.1,1.8-0.6c0.3-0.9,0-2.3-0.5-3.1
		c-0.1-0.1-0.2-0.7-0.4-0.7c-0.1,0-0.4,0.2-0.4,0.4C74.1,52.4,72.5,54.1,73,55z M74.1,56.4c-0.2,0.1-0.3,0.3-0.5,0.4
		c-0.1,0.1-0.3,0.2-0.4,0.4s0.1,0.5,0.3,0.4c0.4-0.2,0.6-0.6,0.8-0.9c0.1-0.2,0.4-0.5,0.5-0.7l0,0C74.5,55.9,74.2,56.2,74.1,56.4z
		 M76.2,57.4c-0.4,0.7-0.9,1.6-1.6,2.3c-0.6,1-1.3,2.1-2.9,1.4c-0.1-0.1-0.6,0.4-0.7,0.6c-0.1,1.2-0.3,2.2-0.7,3.3l0,0l0,0
		c-0.2,0.6-0.5,1.2-0.7,1.7c-0.7,1.5-1.5,3-2.5,4.3c-0.7,0.9-1.5,1.7-2.4,2.4c-2.1,1.9-3.6,4.1-6.3,5.2c-2,0.8-4.3,0.8-6.5,0.6
		c-1.6-0.2-3.2-0.6-4.5-1.3c-3-1.7-5.6-4-7.8-6.5c-2.4-2.8-4.4-5.8-4.6-9.6c0-0.2-0.6-0.6-0.7-0.6c-1.6,0.8-2.3-0.3-2.9-1.4
		c-0.6-0.7-1.2-1.6-1.6-2.3c-1.3-2.1-2.5-5.7-1.9-8.2c0.3-1.3,0.5-2.6,0.8-3.9c0.2-1,0.8-1.6,1.9-1.6s1.1-0.4,0.9-1.2
		c-1-5.1-1.8-10.2-0.7-15.4c0.4-1.9,1.1-3.5,2.7-4.7c2.4-1.8,4.8-3.6,7.3-5.4c2.6-1.9,5.4-3.2,8.7-3.5c0.3,0,0.6-0.2,0.9-0.4h3.2
		c2.8,0.8,5.6,1.3,8.5,1.4c3.4,0,4.8,2.3,5.6,4.6c0.1,0.2,0,0.5-0.1,0.8c-0.2-0.2-0.4-0.3-0.5-0.5c-0.2-0.4-0.4-0.7-0.6-1.1
		c-0.4-0.8-0.3-0.7-0.9-0.3c-0.2,0.1-0.7-0.3-0.8,0.3c0,0.1-0.3,0.2-0.4,0.3c0,0.2,0.1,0.5,0.1,0.7c-0.4,0-1,0.3-1.3,0.1
		c-0.8-0.4-1.6-1-2.3-1.5c-0.2-0.2-0.4-0.4-0.7-0.5c-0.2-0.1-0.5-0.1-0.8-0.2c0.1,0.2,0.2,0.4,0.4,0.5c0.7,0.5,1.3,1,2,1.5
		c0.1,0.1,0.3,0.2,0.4,0.4c-0.2,0-0.4,0.1-0.5,0.1c-0.4,0-0.9-0.1-1.3-0.1c0.3,0.4,0.6,0.8,1,1.1c0.7,0.4,0.9,1.5,2.1,1
		c0.1,0,0.4,0.3,0.6,0.5c0.2,0.2,0.4,0.4,0.6,0.5c-0.1-0.2-0.2-0.5-0.3-0.7c-0.1-0.1-0.2-0.2-0.2-0.4c-0.1-0.4-0.2-0.7-0.3-1.1
		c0.2,0.2,0.5,0.5,0.7,0.8c0.1,0.1,0.2,0.4,0.3,0.5c0.3,0.2,0.6,0.2,0.9,0.4c0-0.3,0-0.5,0-0.8c0-0.2,0-0.5-0.1-0.7
		c0.2,0.2,0.4,0.4,0.6,0.6c0.5,0.3,1.1,0.4,1.5,0.8c1.1,1.3,0.6,3.2-1.1,4c-1.1,0.5-2.2,1-3.3,1.4c-0.1,0.1-0.4,0-0.5-0.1
		c-0.2-0.4-0.4-0.7-0.7-0.1c-0.1,0.2-0.6,0.1-0.9,0.2c-0.2,0-0.4,0-0.5,0.1c-0.3,0.2-0.6,0.4-0.9,0.6c-0.2-0.3-0.3-0.7-0.5-1
		c-0.1-0.2-0.2-0.5-0.3-0.7c0,0.2-0.1,0.5,0,0.7c0,1.2-0.9,0.9-1.6,1c-0.6,0-1.3,0-1.9-0.1c-0.5-0.2-1-0.5-1.4-0.9
		c-0.3-0.2-0.3-0.7-0.5-1s-0.5-0.5-0.7-0.7c0.1,0.3,0.2,0.5,0.3,0.8c0.1,0.4,0.3,0.9,0.4,1.3c0,0.1-0.4,0.5-0.5,0.5
		c-1.9-0.8-3.8-0.3-5.7-0.3c-0.1,0-0.2,0-0.3,0c-1.4-0.2-2.8-0.4-4.1,0.1c-0.2,0.1-0.7-0.2-1-0.4c-0.4-0.3-0.7-0.7-1.1-0.9
		c-0.3-0.2-0.8-0.2-1.2-0.3c0.3,0.2,0.6,0.5,0.9,0.7c1.2,0.7,1.2,1.4,0,2.1c-0.5,0.3-1.1,0.6-1.6,0.8c-1.5,0.5-2,1.7-2.3,3
		c-0.4,1.7-0.9,3.5-1.2,5.2c-0.1,0.4,0.1,0.9,0.1,1.3c-0.2,1.5-0.5,3-0.7,4.6c-0.1,0.7,0.1,1.4,0.1,2.1c0,0.6,0.1,1.4-0.7,1.4
		c-0.4,0-0.9-0.7-1.2-1.1c-0.3-0.4-0.2-0.9-0.5-1.3c-0.4-0.4-0.9-1-1.3-1c-0.6,0.1-1.5,0.6-1.6,1.1c-0.2,0.6-0.3,1.3-0.5,1.9
		c-0.5,2.1-0.9,4.4,0.1,6.4c0.2,0.3,0.3,0.7,0.5,1c0.3,0.7,0.7,1.4,1.1,2.1c0.3,0.7,0.5,1.4,0.9,2.1c0.3,0.6,0.7,1.1,1.2,1.5
		c0.2,0.2,0.4,0.4,0.6,0.5c0.2,0,0.4,0,0.6-0.1c0.4-0.2,0.6-0.6,0.5-1c-0.1-1.6-0.3-3.2-0.4-4.8c-0.1-1.1-0.2-2.1-0.2-3.2
		c0-0.2,0.2-0.3,0.3-0.5c0.1,0.1,0.3,0.3,0.3,0.4c0.2,1,0.3,2.1,0.5,3.1c0.3,2.6,0.6,5.3,1,7.9c0.8,4.7,3.7,8.1,7.4,11.1
		c1.1,0.9,2.2,1.8,3.3,2.6c3,2.4,7.7,2.7,11.3,1.6c0.4-0.1,0.8-0.3,1.2-0.4c0.5-0.2,0.9-0.5,1.3-0.8c0.3-0.2,0.6-0.4,0.9-0.7
		c1.8-1.5,3.5-3.5,4.8-5.2c1.1-1.4,2.1-2.9,2.9-4.4c0.6-1.2,1-2.4,1.2-3.8c0.4-2.6,0.7-5.3,1-7.9c0.1-1,0.3-2.1,0.5-3.1
		c0-0.2,0.2-0.3,0.3-0.4c0.1,0.2,0.3,0.3,0.3,0.5c0,1.1-0.1,2.1-0.2,3.2c-0.1,1.6-0.3,3.2-0.4,4.8c0,0.5,0.4,1,0.9,1
		c1.8-0.1,2.3-2.8,3-3.9c0.7-1.3,1.3-2.7,2-4c0.4-2.5-0.1-5-0.8-7.5c-0.1-0.5-1-1-1.6-1.1c-0.4-0.1-1,0.6-1.3,1
		c-0.3,0.3-0.2,0.9-0.5,1.3c-0.3,0.4-0.8,1.1-1.2,1.1c-1.1,0-0.8-1.1-0.4-1.9c0,0-0.1-0.1-0.1-0.2c0.4-2.7,0.6-5.4,1.2-8
		c0.4-1.6,0.1-2.9-0.9-4.2c-0.8-1-0.6-1.5,0.7-1.8c0.5-0.1,1-0.1,1.4-0.2c0.3-0.1,0.5-0.3,0.8-0.4c-0.3-0.1-0.7-0.2-1-0.1
		c-0.6,0.1-1.2,0.4-1.8,0.6c-0.9,0.3-1.6,0.1-2.1-0.8s-1.2-1.6-1.9-2.3c-0.7-0.8-0.7-1.5,0-2.1c0.6-0.5,1.4-1,2.1-1.4
		c0.3-0.2,0.6-0.2,0.9-0.4c0.3-0.2,0.6-0.6,0.9-0.9c-0.6-0.2-1.6-0.7-1.8-0.4c-0.8,0.7-0.8,0.1-1-0.3c-0.2-0.3-0.3-0.7-0.4-1
		c-0.2-0.6,0.2-0.8,0.7-0.6c0.8,0.3,1.8,0.5,2.3,1.1c1.1,1.2,2.1,2.5,2.7,3.9c0.8,1.8,1.4,3.8,1.9,5.7c0.2,0.8,0.3,1.8,0,2.7
		c-0.8,2.9-0.8,6-1.8,8.8l0,0c-0.1,0.6,0.1,0.8,1,0.8c1,0,1.6,0.7,1.9,1.6c0.3,1.3,0.5,2.6,0.8,3.9C78.7,51.7,77.6,55.2,76.2,57.4z"
		/>
	<g>
		<path d="M62.1,61.7c0.1,0.4,0.2,0.8-0.3,1c-0.2,0-0.4,0.1-0.6,0.1C60.6,62.9,60,63,59.4,63c-1.3,0.1-2.6,0.1-3.8,0.1
			c-1.8,0-3.7-0.6-5.5-0.2c-0.2,0-0.3,0-0.5,0c-0.9,0.2-1.9,0.4-2.9,0.5c-0.4,0-0.7,0-0.9-0.1c-0.5,0-0.8-0.2-1.1-0.5
			c0.3,0.7,0.8,0.9,1.5,1c1.2,1.1,1.6,2.9,3.2,3.6c1.5,0.7,3.4,1.1,5,1c1.4,0,3-0.5,4-1.4c0.6-0.5,0.9-1,1.1-1.7
			c0.5-1,1.1-1.6,2.1-2.3l0,0c0.1-0.1,0.3-0.1,0.4-0.2c0.1,0,0.1,0,0.2-0.1l0,0l0,0c0.1,0,0.1-0.1,0.1-0.1
			C62.6,62.4,62.4,62,62.1,61.7z M59.2,65.3C58.4,67,57,67.8,54.9,68c-1.7,0.1-3.5-0.2-5.1-0.8c-1.7-0.6-2.1-2.4-3.5-3.4
			c0.1,0,0.3,0,0.4,0c1.8-0.1,3.5-0.8,5.4-0.9l0,0c1.4,0.1,2.9,0.5,4.3,0.5c1.2,0.1,2.8,0.1,4.2-0.1C59.9,63.8,59.5,64.6,59.2,65.3z
			"/>
		<path d="M59.2,65.3C58.4,67,57,67.8,54.9,68c-1.7,0.1-3.5-0.2-5.1-0.8c-1.7-0.6-2.1-2.4-3.5-3.4c0.1,0,0.3,0,0.4,0
			c1.8-0.1,3.5-0.8,5.4-0.9l0,0c1.4,0.1,2.9,0.5,4.3,0.5c1.2,0.1,2.8,0.1,4.2-0.1C59.9,63.8,59.5,64.6,59.2,65.3z"/>
		<path class="st0" d="M58.7,64.5c0.3-0.3,0.5-0.6,0.7-1c-1.1,0.1-2.2,0-3.1,0c-1.4-0.1-2.8-0.4-4.3-0.5l0,0c-1.4,0-2.7,0.4-4.1,0.7
			c0.4,0.7,0.8,1.3,1.8,1.5s2.1,0.4,3.1,0.5c1.3,0.1,2.5,0,3.8-0.3C57.5,65.2,58.2,64.9,58.7,64.5z"/>
		<path class="st0" d="M54.3,66.7c-1.6-0.2-2.9,0.1-4.2,0.7c1.5,0.5,3.2,0.8,4.8,0.7c0.8-0.1,1.4-0.2,2-0.5
			C56.1,67.1,55.2,66.8,54.3,66.7z"/>
		<path d="M50.7,70.1c1.3,1.2,3.7,1.2,5.1,0.2c0,0,0.1-0.1,0.1-0.2C54.1,70.5,52.4,70.6,50.7,70.1z"/>
	</g>
	<path class="st1" d="M59.8,68.1c1.1-2,3.1-2,3.6-5.1"/>
	<path class="st1" d="M47.6,68.8c-1.1-2-3.1-2-3.6-5.1"/>
	<path class="st2" d="M57.3,48.2c0.2-0.6,0.5-1.2,0.9-1.7s0.9-1,1.4-1.4s1.2-0.6,1.8-0.8s1.3-0.3,1.9-0.4c-0.3,0.1-0.6,0.2-0.9,0.3
		c-0.3,0.1-0.6,0.2-0.9,0.3c-0.6,0.2-1.2,0.5-1.7,0.9c-0.1,0.1-0.2,0.2-0.4,0.3c-0.1,0.1-0.2,0.2-0.3,0.3c-0.2,0.2-0.4,0.4-0.6,0.7
		C58,47.1,57.7,47.7,57.3,48.2L57.3,48.2z"/>
	<path class="st2" d="M48.9,48.2c-0.4-0.5-0.7-1.1-1.1-1.5c-0.2-0.2-0.4-0.5-0.6-0.7c-0.1-0.1-0.2-0.2-0.3-0.3s-0.2-0.2-0.4-0.3
		c-0.5-0.4-1.1-0.6-1.7-0.9c-0.3-0.1-0.6-0.2-0.9-0.3c-0.3-0.1-0.6-0.2-0.9-0.3c0.6,0.1,1.3,0.2,1.9,0.4c0.6,0.2,1.2,0.4,1.8,0.8
		c0.5,0.4,1,0.8,1.4,1.4C48.4,47,48.7,47.6,48.9,48.2L48.9,48.2z"/>
	<path d="M58.6,48.4c0,0.3-0.2,0.5-0.5,0.5s-0.5-0.2-0.5-0.5"/>
	<path d="M49,48.4c0,0.3-0.2,0.5-0.5,0.5S48,48.7,48,48.4"/>
</g>
</svg>
